<?xml version="1.0" encoding="UTF-8"?>
<!DOCTYPE svg PUBLIC "-//W3C//DTD SVG 1.1//EN" "http://www.w3.org/Graphics/SVG/1.1/DTD/svg11.dtd">
<!-- Creator: CorelDRAW X7 -->
<svg xmlns="http://www.w3.org/2000/svg" xml:space="preserve" width="398px" height="100px" version="1.1" style="shape-rendering:geometricPrecision; text-rendering:geometricPrecision; image-rendering:optimizeQuality; fill-rule:evenodd; clip-rule:evenodd"
viewBox="0 0 3980000 1001258"
 xmlns:xlink="http://www.w3.org/1999/xlink">
 <defs>
  <style type="text/css">
   <![CDATA[
    .fil0 {fill:none}
    .fil1 {fill:#4B459B}
    .fil8 {fill:#4F4AA2}
    .fil2 {fill:#514A9D}
    .fil3 {fill:#524CA3}
    .fil11 {fill:#58549A}
    .fil4 {fill:#5954A6}
    .fil7 {fill:#625DAA}
    .fil6 {fill:#C51C6F}
    .fil10 {fill:#E595BA}
    .fil9 {fill:#FCFCFC}
    .fil5 {fill:#FDFDFD}
   ]]>
  </style>
 </defs>
 <g id="Слой_x0020_1">
  <metadata id="CorelCorpID_0Corel-Layer"/>
  <g id="_907384768">
   <rect class="fil0" x="1984994" y="310390" width="375472" height="250314"/>
   <g>
    <g>
     <path class="fil1" d="M2051378 425129c958,2852 458,2515 2393,3311 -743,-3313 -286,-2409 -2393,-3311z"/>
     <path class="fil1" d="M2156845 428676l941 3856c918,-2103 1641,-1912 -941,-3856z"/>
    </g>
    <g>
     <path class="fil2" d="M2051364 438851c-2706,-3698 -6529,-960 -10938,-6905 -1167,-8956 4560,-8889 10952,-6817 -500,-4313 -14039,-4914 -12056,7848 3214,4052 7186,5008 12042,5874z"/>
     <path class="fil2" d="M2070347 450152c-2669,725 -4740,1924 -7655,850 -4297,-1581 -2870,-3146 -5158,-5862 -178,7419 10767,10533 12813,5012z"/>
    </g>
    <path class="fil3" d="M2069809 451165c4669,-19 4916,-10513 1043,-12722 -4764,-3594 -7811,-223 -11718,-7258 -120,-4121 686,-7001 5434,-7464 4723,-461 5377,2691 7756,4969 -1195,-11167 -18553,-6159 -14051,4114 3806,8680 19652,1553 11536,18361z"/>
    <path class="fil3" d="M2049664 438060c2593,3455 6137,10304 -803,13032 -6561,2578 -7937,-3719 -10276,-5982 37,6043 6685,9694 11837,6702 4632,-2689 5724,-12023 -758,-13752z"/>
    <path class="fil3" d="M2136942 428554c3458,-432 5547,-4736 10384,-4602 6411,177 5560,3102 9519,4724 -2944,-7501 -15580,-7899 -19903,-122z"/>
    <path class="fil4" d="M2137751 427549c-3162,1622 -432,911 -3136,2708 -6031,-10754 -14871,-9571 -22416,-1476 -282,-3229 390,-3051 -1173,-5351 -2231,983 -467,-1276 -378,12902 29,4586 1212,11668 -1211,15265l3830 165c-1039,-1517 -6473,-26501 8970,-27745 16767,-1350 12624,24385 10972,27692l3670 278c-2994,-6778 -800,-18103 872,-24438z"/>
    <path class="fil4" d="M2081282 448443c4267,6940 19899,5176 22308,-2960 -2971,569 -3935,4385 -9035,5550 -5267,1204 -8980,-1600 -13273,-2590z"/>
    <g>
     <path class="fil5" d="M2104134 431266c-1100,-895 -1910,-739 -1487,-2966l198 -1861 -1879 105c-6003,-921 -8371,-4620 -15750,-1268 -4506,2048 -7501,6497 -7563,11584l27151 236 -670 -5830z"/>
     <path class="fil5" d="M2274740 430186c-11109,3416 -5700,18206 4484,15324 9732,-2757 5355,-18347 -4484,-15324z"/>
    </g>
    <g>
     <path class="fil6" d="M2217433 425359c-3244,-2026 -4168,-2004 -8569,-1171l-105 5330 3355 1494c98,24223 -1965,8733 -3298,15675l73 4888 13290 193 190 -5954c-3856,-2399 -1754,1005 -3398,-2566 8,-5048 -1461,-13817 6090,-13499 7226,303 5724,9500 5791,14350l-3532 1406 258 6167 13091 124 448 -6029 -3570 -1321 325 -11575c3952,-4185 5685,-3690 10358,-1557 1823,4819 1330,6843 1309,11930 -1348,5420 -3436,-3617 -3355,8227l13296 347c670,-10857 -2345,-4585 -3106,-8560 -6,-6120 646,-14122 -4874,-17783 -5893,-3906 -11946,-3465 -16957,1353 -7334,-3310 -7704,-6696 -17110,-1469z"/>
     <path class="fil6" d="M2274740 430186c9839,-3023 14216,12567 4484,15324 -10184,2882 -15593,-11908 -4484,-15324zm-8694 -6157l-7240 228 205 6294 2758 325 -34 27085c-3187,1384 -3309,-652 -2651,7486l12321 -187c303,-15195 -3319,2282 -2535,-14544 11189,4279 23141,-627 22662,-13515 -455,-12258 -14317,-17650 -24215,-10982l-1271 -2190z"/>
     <path class="fil6" d="M2175995 444750l-1801 -3895 -6049 -35c-723,12870 17195,15732 22913,5510 9224,-16487 -12299,-19816 -15839,-22238l-524 -5068c3478,-3415 1555,-2676 8116,-2733l3294 4829 5980 -162c-1047,-17183 -26563,-14426 -24098,2383 1228,8369 8939,8069 14840,11179 6658,3513 3567,13758 -6832,10230z"/>
     <path class="fil6" d="M2312953 434788c1524,-6906 11603,-6833 14061,193l-14061 -193zm20228 8669c-10698,-440 -15519,6853 -20260,-2227l21634 -288c1756,-20495 -22974,-23851 -28573,-8432 -7265,19999 23598,27302 27199,10947z"/>
     <path class="fil6" d="M2291653 414700c1283,3834 -927,934 3171,2667l140 25889c-1057,5398 -3412,-3996 -3205,8365l13251 108c294,-12319 -1904,-2941 -3227,-8485l0 -32750 -9992 -398 -138 4604z"/>
     <path class="fil6" d="M2194345 429569l3036 1474c65,22868 -1362,9229 -2929,15660l159 4979 12274 114c538,-7646 993,-5552 -2691,-7620l32 -20037 -9538 -400 -343 5830z"/>
     <polygon class="fil6" points="2197432,420542 2204046,420633 2204190,413324 2197655,413147 "/>
    </g>
    <path class="fil7" d="M2011955 409952c1854,3717 1462,37794 -314,41698 4741,838 19174,1090 23786,-136 -158,-3688 -59,-1541 -2424,-1119l-18334 128c-923,-3655 -956,-15270 45,-18863 5308,-82 13302,-1314 17812,1215l-450 -3948c-3281,2400 -13333,1450 -17878,1155l148 -18705c6868,-575 15160,-256 21166,591 -702,-3609 -6891,-2156 -10908,-2152 -4200,2 -8510,-156 -12649,136z"/>
    <path class="fil8" d="M2102647 428300l2157 8796 -27151 -236c62,-5087 3057,-9536 7563,-11584 7379,-3352 13190,1839 18005,4167 -3435,-6938 -16968,-8040 -22524,-2700 -5289,5081 -5470,18409 942,22118 -1057,-3581 -4084,-5802 -3891,-10359l28317 -201c16,-3375 -3418,-10001 -3418,-10001z"/>
    <path class="fil9" d="M2312953 434788l14061 193c-2458,-7026 -12537,-7099 -14061,-193z"/>
    <path class="fil10" d="M2259011 430551l-205 -6294 7240 -228c-2559,-1313 -4618,-1169 -7731,-280 -579,3173 -975,4663 696,6802z"/>
    <path class="fil11" d="M2104134 431266l-1487 -2966c-423,2227 387,2071 1487,2966z"/>
    <path class="fil4" d="M2157768 430237c-5036,-8977 -16937,-13781 -23967,6073 29,4588 1212,11670 -1210,15265l3829 168c-1037,-1518 -6473,-26504 8970,-27748 16767,-1350 12624,24385 10973,27693l3670 277c-3730,-8439 -190,-20387 -2265,-21728z"/>
   </g>
  </g>
 </g>
</svg>
