<?xml version="1.0" encoding="UTF-8"?>
<!DOCTYPE svg PUBLIC "-//W3C//DTD SVG 1.1//EN" "http://www.w3.org/Graphics/SVG/1.1/DTD/svg11.dtd">
<!-- Creator: CorelDRAW X7 -->
<svg xmlns="http://www.w3.org/2000/svg" xml:space="preserve" width="1311px" height="383px" version="1.1" style="shape-rendering:geometricPrecision; text-rendering:geometricPrecision; image-rendering:optimizeQuality; fill-rule:evenodd; clip-rule:evenodd"
viewBox="0 0 13110000 3829984"
 xmlns:xlink="http://www.w3.org/1999/xlink">
 <defs>
  <style type="text/css">
   <![CDATA[
    .fil0 {fill:black;fill-rule:nonzero}
   ]]>
  </style>
 </defs>
 <g id="Слой_x0020_1">
  <metadata id="CorelCorpID_0Corel-Layer"/>
  <path class="fil0" d="M13026461 53421l-36 -260 36 260zm-12815552 3776445l-211039 -593232 1878 1086 1866 1075 1878 1075 1878 1063 1878 1051 1866 1051 1878 1040 1878 1027 1878 1028 1878 1016 1878 1015 1878 1004 1878 992 1878 981 1878 980 1878 980 1889 957 1878 957 1878 957 1878 933 1890 944 1878 922 1890 921 1878 909 1890 910 1877 898 1890 885 1890 874 1878 874 1890 874 1889 851 1890 862 1890 839 1890 838 1890 827 1889 815 1890 815 1890 815 1890 791 1889 791 1890 780 1890 780 1901 767 1890 756 1890 756 1902 744 1889 744 1902 733 1890 720 1901 709 1890 708 1902 709 1901 685 1890 685 1901 685 1902 662 1902 661 1901 661 1902 650 1901 638 1902 626 1902 626 1901 614 1902 614 1901 602 1902 591 1913 591 1902 578 1901 567 1914 567 1901 555 1902 555 1913 544 1902 531 1913 520 1914 520 1901 519 1914 496 1913 496 1913 496 1902 473 1913 472 1914 473 1913 460 1913 449 1914 437 1913 437 1914 437 1913 414 1913 413 1926 402 1913 401 1913 390 1926 390 1913 366 1913 378 1926 354 1913 354 1925 343 1913 342 1926 331 1925 319 1913 319 1925 307 1926 295 1925 296 1925 283 1925 272 1925 271 1926 260 1925 260 1925 248 1925 236 1925 237 1926 224 1925 213 1937 212 1925 201 1925 189 1937 189 1925 177 1937 177 1926 154 1937 165 1925 142 1937 142 1937 129 1925 130 1937 119 1937 118 1937 94 1937 95 1925 94 1937 83 1937 71 1937 59 1949 59 1937 59 1937 35 1937 36 1937 35 1949 12 1937 12 1937 12 1949 0 1937 -12 1949 -24 1937 -24 1948 -35 1937 -35 1949 -48 1949 -59 1937 -59 1949 -71 1949 -82 1949 -83 1948 -94 1949 -95 1937 -106 1961 -118 1949 -130 1948 -130 1949 -142 1949 -142 1949 -153 1949 -166 1960 -165 1949 -177 1949 -177 1961 -189 1948 -201 1961 -213 1949 -212 1961 -225 1948 -224 1961 -236 1961 -248 1960 -248 1949 -260 1961 -272 1960 -271 1961 -284 1961 -283 1960 -296 1961 -307 1961 -319 1960 -319 1961 -318 1960 -343 1973 -342 1960 -343 1961 -366 1961 -354 1972 -378 1961 -378 1972 -390 1961 -402 1972 -401 1961 -402 1972 -425 1973 -425 1960 -425 1973 -449 1972 -449 1973 -449 1972 -461 1961 -472 1972 -484 1973 -484 1972 -497 1984 -496 1973 -507 1972 -520 1973 -520 1972 -531 1984 -544 1973 -543 1972 -555 1985 -567 1972 -567 1972 -579 1985 -578 1984 -591 1972 -602 1985 -603 1972 -614 1984 -626 1985 -626 1984 -638 1984 -649 1973 -650 1984 -661 1984 -662 1984 -673 1985 -685 1984 -697 1996 -697 1984 -696 1984 -721 1985 -720 1984 -721 1996 -732 1984 -744 1996 -756 1984 -756 1985 -768 1996 -768 1996 -779 1984 -791 1996 -792 1996 -803 1985 -815 1996 -815 1996 -827 1996 -838 1996 -839 -284044 561945zm116776 -604653l-13051 39224 -78449 -26102 13051 -39225 792 -2433 3236 -9590 3354 -9638 3461 -9650 3567 -9697 3697 -9732 3803 -9720 3909 -9780 4063 -9827 4146 -9791 4287 -9862 4418 -9886 4535 -9886 4665 -9909 4807 -9969 4937 -9957 4512 -8881 18886 -36768 73535 37772 -18885 36767 -4158 8197 -4583 9224 -4429 9166 -4311 9177 -4204 9177 -4087 9130 -3957 9106 -3862 9107 -3732 9047 -3626 9047 -3520 9036 -3413 8976 -3307 8965 -3201 8941 -3095 8905 -3000 8906 -791 2433zm192721 -345225l-26611 31630 -63260 -53220 26611 -31630 7925 -9532 8657 -10181 8823 -10169 9000 -10169 9189 -10182 9378 -10169 9543 -10146 9721 -10157 9933 -10157 10110 -10134 10288 -10134 10500 -10134 3141 -2965 30154 -28263 56527 60307 -30153 28263 -2551 2422 -9910 9567 -9744 9590 -9543 9567 -9343 9567 -9177 9567 -9000 9579 -8811 9555 -8622 9543 -8457 9555 -8279 9555 -8114 9544 -7925 9531zm296846 -270047l-33898 23646 -47291 -67796 33898 -23645 9637 -6780 14233 -9838 14456 -9839 14705 -9803 14917 -9780 15154 -9767 15390 -9733 15602 -9697 15862 -9696 11185 -6709 35528 -21130 42260 71055 -35528 21130 -10642 6378 -15295 9343 -15059 9366 -14823 9378 -14586 9389 -14374 9426 -14114 9425 -13890 9437 -13689 9460 -9638 6780zm351248 -203575l-37346 17705 -35410 -74693 37347 -17705 14492 -6933 19582 -9212 19866 -9178 20150 -9153 20398 -9095 20657 -9071 20953 -9035 16346 -6933 38115 -16004 32007 76228 -38114 16004 -15874 6721 -20456 8823 -20185 8858 -19926 8882 -19630 8917 -19370 8965 -19110 8976 -14492 6933zm377953 -155291l-39047 13535 -27071 -78094 39047 -13536 22949 -8019 24638 -8481 24956 -8409 25229 -8362 25535 -8303 25831 -8280 8964 -2823 39473 -12283 24567 78945 -39473 12283 -8539 2681 -25429 8138 -25134 8185 -24827 8220 -24508 8268 -24212 8315 -22949 8020zm391960 -120626l-39968 10547 -21095 -79937 39969 -10547 26716 -7110 29280 -7654 29622 -7618 29965 -7547 30271 -7489 15225 -3708 40193 -9662 19322 80386 -40193 9662 -14870 3614 -29941 7394 -29586 7452 -29244 7524 -28949 7583 -26717 7110zm399874 -94937l-40488 8327 -16653 -80977 40488 -8327 29161 -6059 33674 -6850 34015 -6780 34370 -6720 31548 -6047 40606 -7701 15401 81213 -40606 7700 -31240 6000 -34063 6650 -33709 6732 -33342 6780 -29162 6059zm404682 -75213l-40796 6662 -13323 -81591 40796 -6661 11055 -1819 37618 -6071 37984 -6000 38374 -5929 38729 -5847 248 -47 40901 -5976 11953 81803 -40902 5976 -38456 5799 -38067 5882 -37725 5977 -37334 6023 -11055 1819zm407480 -59527l-41008 5185 -10370 -82016 41008 -5185 35067 -4476 41799 -5209 42165 -5126 42579 -5067 3000 -343 41067 -4677 9354 82134 -41067 4677 -2740 319 -42319 5020 -41929 5102 -41539 5185 -35067 4477zm409547 -46772l-41126 4087 -8173 -82252 41126 -4087 13642 -1370 45378 -4441 45767 -4358 46181 -4276 14067 -1264 41173 -3637 7276 82346 -41173 3638 -13831 1240 -45968 4252 -45555 4335 -45142 4417 -13642 1370zm410740 -36118l-41220 3094 -6189 -82441 41220 -3094 24047 -1831 49099 -3614 49535 -3531 42520 -2930 41244 -2787 5575 82488 -41244 2788 -42331 2905 -49323 3508 -48886 3614 -24047 1831zm411603 -27130l-41268 2279 -4559 -82535 41268 -2279 15590 -874 52536 -2847 52996 -2728 44267 -2185 41280 -1996 3992 82559 -41280 1996 -44102 2185 -52783 2728 -52347 2823 -15590 874zm412122 -19346l-41304 1535 -3070 -82606 41303 -1536 34689 -1311 56114 -2019 56563 -1914 18142 -579 41315 -1263 2527 82630 -41315 1263 -17976 579 -56374 1890 -55925 2019 -34689 1312zm412511 -12579l-41326 909 -1819 -82653 41327 -910 23244 -531 59303 -1252 59799 -1146 23197 -401 41327 -662 1322 82654 -41326 661 -23032 402 -59610 1145 -59161 1252 -23245 532zm412701 -6626l-41327 342 -685 -82653 41327 -343 34477 -307 62622 -460 63094 -343 5374 -24 41327 -106 212 82654 -41326 106 -5209 24 -62953 342 -62456 461 -34477 307zm412866 -1299l-41326 -119 236 -82653 41327 118 3637 0 65528 248 66012 378 30366 224 41327 343 -685 82653 -41327 -342 -30225 -224 -65870 -378 -65362 -248 -3638 0zm412796 3472l-41327 -626 1252 -82654 41327 626 58854 839 79665 1134 26634 331 41327 460 -921 82654 -41327 -461 -26799 -331 -79831 -1133 -58854 -839zm413728 4595l-41327 -201 402 -82654 41327 201 37866 224 76452 296 50835 106 41327 24 -47 82653 -41327 -24 -51024 -106 -76618 -295 -37866 -224zm413764 82l-41327 236 -472 -82653 41326 -236 922 0 73299 -508 72685 -662 18130 -212 41327 -520 1039 82654 -41327 519 -18319 213 -72874 661 -73488 508 -921 0zm413858 -5055l-41327 803 -1606 -82653 41327 -803 18732 -331 69614 -1441 69000 -1571 7654 -201 41315 -1098 2197 82630 -41315 1098 -7867 201 -69189 1594 -69803 1441 -18732 331zm413776 -10701l-41315 1394 -2788 -82630 41315 -1394 14752 -472 66012 -2291 65409 -2457 18745 -756 41303 -1701 3401 82606 -41303 1701 -18933 756 -65646 2457 -66200 2315 -14752 472zm413704 -16996l-41279 2126 -4252 -82559 41279 -2126 52264 -2622 61937 -3260 50681 -2823 41268 -2338 4677 82535 -41268 2339 -50893 2823 -62150 3283 -52264 2622zm413280 -24059l-41244 2788 -5575 -82489 41244 -2787 3366 -213 58536 -4039 57968 -4169 44693 -3343 41209 -3142 6283 82418 -41208 3142 -44930 3366 -58204 4193 -58772 4063 -3366 212zm413043 -32102l-41161 3744 -7488 -82323 41161 -3744 45083 -4028 54153 -4996 53622 -5114 11386 -1122 41126 -4110 8221 82252 -41126 4110 -11622 1146 -53882 5138 -54390 5019 -45083 4028zm412146 -41268l-41067 4630 -9260 -82134 41067 -4630 2657 -295 50469 -5776 49949 -5882 49417 -5964 11162 -1394 41007 -5161 10323 82016 -41008 5161 -11421 1417 -49701 6012 -50208 5906 -50729 5799 -2657 295zm411283 -52004l-40913 5870 -11740 -81827 40913 -5870 29622 -4193 45910 -6661 45413 -6756 42177 -6449 40855 -6307 12614 81709 -40855 6307 -42484 6472 -45697 6804 -46193 6708 -29622 4193zm409607 -64618l-40701 7217 -14433 -81402 40701 -7217 18295 -3212 41563 -7441 41079 -7536 40618 -7606 20421 -3921 40583 -7854 15708 81165 -40582 7854 -20729 3969 -40949 7677 -41409 7583 -41870 7511 -18295 3213zm407208 -79878l-40370 8858 -17716 -80740 40370 -8858 9106 -1973 36969 -8196 36531 -8280 36083 -8315 35657 -8397 5953 -1441 40169 -9745 19488 80339 -40169 9744 -6307 1512 -36012 8492 -36437 8410 -36886 8350 -37322 8268 -9107 1972zm403630 -98776l-39827 11056 -22110 -79654 39827 -11055 24850 -6827 31819 -8917 31418 -8988 31004 -9012 30578 -9059 8244 -2504 39532 -12059 24118 79063 -39532 12059 -8645 2622 -31004 9201 -31406 9130 -31795 9082 -32220 9036 -24851 6826zm397500 -122881l-38976 13736 -27473 -77953 38977 -13736 15000 -5244 26669 -9485 26303 -9519 25902 -9543 25535 -9591 25181 -9614 9225 -3579 38480 -15083 30165 76961 -38480 15083 -9673 3767 -25630 9780 -25984 9756 -26374 9708 -26729 9686 -27118 9626 -15000 5244zm387343 -155044l-37453 17492 -34984 -74905 37452 -17492 17977 -8315 20917 -9862 20610 -9874 20280 -9898 19925 -9886 19606 -9909 19288 -9922 8043 -4204 36555 -19288 38575 73111 -36555 19287 -8563 4488 -19807 10181 -20126 10170 -20445 10145 -20776 10134 -21106 10134 -21437 10098 -17976 8315zm367866 -200114l-34630 22559 -45118 -69260 34630 -22559 3177 -2043 15012 -9874 14740 -9850 14445 -9839 14173 -9815 13890 -9803 13606 -9768 13335 -9768 13075 -9732 12814 -9732 3922 -3036 32598 -25417 50835 65197 -32599 25417 -4511 3485 -13382 10157 -13642 10157 -13925 10193 -14197 10193 -14457 10205 -14740 10217 -15012 10216 -15283 10228 -15579 10229 -3177 2043zm327047 -267449l-28087 30331 -60661 -56173 28087 -30331 4937 -5279 8279 -9024 8067 -8976 7854 -8930 7654 -8870 7453 -8834 7252 -8752 7051 -8717 6850 -8645 6662 -8587 6472 -8551 6295 -8469 6107 -8409 5929 -8351 3531 -5114 23386 -34086 68173 46771 -23385 34087 -4052 5823 -6425 9059 -6626 9141 -6815 9178 -6992 9212 -7205 9296 -7393 9330 -7595 9378 -7795 9437 -7996 9449 -8197 9531 -8421 9544 -8610 9614 -8847 9638 -4937 5279zm222685 -366082l-11705 39637 -79275 -23409 11705 -39638 106 -366 1677 -5776 1559 -5692 1512 -5634 1394 -5492 1311 -5386 1228 -5280 1146 -5208 1086 -5115 992 -4937 922 -4878 862 -4771 768 -4607 720 -4547 661 -4429 591 -4228 531 -4193 485 -4122 425 -3910 378 -3815 331 -3732 283 -3520 236 -3425 201 -3401 165 -3189 130 -3083 107 -2941 59 -2764 47 -2764 24 -2503 -12 -2327 -36 -2339 -47 -2244 -47 -1996 -71 -1783 -71 -1701 -83 -1488 -106 -1571 -83 -1370 -82 -993 -107 -1122 -70 -897 -71 -650 -36 -307 -35 -295 -118 -874 -6166 -40335 81709 -12496 6248 40854 47 272 130 980 95 709 23 260 154 1122 153 1441 142 1405 142 1465 130 1547 153 1961 130 1890 130 1996 130 2338 118 2457 95 2634 71 2728 47 2740 35 2929 12 3225 -24 3331 -47 3330 -82 3614 -130 3697 -154 3815 -212 3969 -249 4016 -283 4251 -354 4418 -402 4441 -449 4618 -519 4760 -579 4807 -626 4972 -709 5173 -779 5209 -839 5303 -933 5504 -1004 5551 -1063 5681 -1181 5835 -1228 5870 -1335 6012 -1417 6130 -1524 6260 -1630 6366 -1701 6413 -1819 6567 -1937 6673 -106 367z"/>
 </g>
</svg>
