<?xml version="1.0" encoding="UTF-8"?>
<!DOCTYPE svg PUBLIC "-//W3C//DTD SVG 1.1//EN" "http://www.w3.org/Graphics/SVG/1.1/DTD/svg11.dtd">
<!-- Creator: CorelDRAW X7 -->
<svg xmlns="http://www.w3.org/2000/svg" xml:space="preserve" width="1316px" height="235px" version="1.1" style="shape-rendering:geometricPrecision; text-rendering:geometricPrecision; image-rendering:optimizeQuality; fill-rule:evenodd; clip-rule:evenodd"
viewBox="0 0 13160000 2349995"
 xmlns:xlink="http://www.w3.org/1999/xlink">
 <defs>
  <style type="text/css">
   <![CDATA[
    .fil0 {fill:black;fill-rule:nonzero}
   ]]>
  </style>
 </defs>
 <g id="Слой_x0020_1">
  <metadata id="CorelCorpID_0Corel-Layer"/>
  <path class="fil0" d="M85429 2311467l-791 40748 -82654 -1606 803 -41327 48 -1346 35 -662 -24 473 36 -673 35 -603 36 -567 35 -626 47 -637 83 -1087 59 -732 36 -473 70 -897 95 -1193 94 -1193 95 -1040 106 -1110 107 -1146 118 -1405 153 -1476 130 -1311 154 -1560 165 -1618 165 -1511 178 -1713 200 -1760 213 -1842 224 -1878 225 -1937 248 -1985 248 -2043 283 -2197 260 -2043 284 -2221 318 -2374 331 -2409 343 -2374 342 -2410 378 -2574 378 -2540 390 -2657 413 -2634 425 -2787 461 -2835 437 -2799 496 -3000 496 -2894 496 -3035 555 -3166 544 -3035 555 -3189 590 -3236 603 -3272 626 -3390 649 -3378 650 -3413 697 -3555 697 -3520 732 -3638 756 -3661 756 -3614 779 -3780 827 -3827 815 -3791 862 -3910 874 -3956 910 -4016 921 -4028 945 -4074 980 -4146 992 -4181 1028 -4228 1039 -4241 47 -212 9874 -40134 80268 19748 -9874 40134 -47 212 -992 4052 -957 3968 -945 3945 -909 3886 -898 3862 -874 3791 -838 3733 -827 3697 -791 3649 -792 3650 -756 3543 -732 3472 -732 3567 -709 3402 -661 3331 -674 3330 -626 3225 -626 3248 -602 3189 -579 3059 -555 3083 -543 3000 -532 2976 -519 2988 -485 2764 -472 2799 -472 2823 -426 2598 -437 2705 -413 2551 -378 2504 -390 2540 -366 2397 -354 2398 -331 2268 -319 2291 -319 2232 -283 2079 -272 1996 -260 2032 -283 2114 -236 1819 -225 1854 -224 1795 -201 1725 -201 1665 -165 1583 -177 1547 -154 1453 -165 1535 -142 1311 -130 1252 -130 1358 -106 1075 -95 1028 -106 1145 -83 1063 -94 1016 -71 721 -47 578 -47 756 -83 1063 -59 638 -12 189 -24 473 -35 366 -12 271zm12903878 36449l-322796 -540402 2055 697 2044 685 2043 685 2055 673 2043 673 2044 662 2043 649 2032 650 2043 638 2043 626 2032 626 2043 614 2031 614 2044 591 2031 602 2032 579 2031 579 2032 578 2031 555 2032 555 2019 556 2032 543 2031 531 2020 520 2032 520 2019 508 2020 508 2020 496 2019 484 2020 484 2020 473 2019 472 2020 449 2008 449 2020 448 2008 437 2019 426 2008 425 2008 413 2008 402 2008 401 2008 390 2007 378 2008 378 1996 366 2008 366 1996 355 2008 342 1996 343 1996 330 2008 319 1996 319 1996 307 1996 296 1985 295 1996 283 1996 284 1984 271 1996 260 1984 260 1996 248 1985 236 1984 237 1984 224 1984 224 1985 213 1984 201 1972 189 1985 189 1984 189 1972 165 1973 165 1984 166 1973 142 1972 153 1972 130 1973 130 1972 118 1973 118 1960 106 1973 95 1960 94 1973 83 1961 71 1972 71 1961 59 1960 59 1961 47 1961 36 1960 23 1949 24 1961 23 1960 0 1949 0 1949 0 1961 -11 1948 -24 1949 -35 1949 -36 1949 -35 1949 -59 1948 -59 1949 -59 1937 -83 1949 -83 1937 -82 1949 -95 1937 -106 1937 -118 1937 -118 1937 -130 1937 -130 1937 -142 1937 -142 1937 -165 1925 -165 1937 -166 1925 -177 1937 -189 1926 -201 1925 -201 1925 -200 1925 -225 1925 -224 1926 -225 1925 -248 1925 -248 1913 -248 1926 -260 1913 -271 1925 -272 1914 -283 1913 -296 1913 -295 1914 -307 1913 -319 1914 -319 1913 -330 1901 -343 1914 -342 1901 -355 1914 -354 1901 -366 1902 -378 1902 -378 1901 -390 1902 -402 1901 -401 1902 -413 1901 -414 1890 -425 1902 -437 1890 -437 1901 -449 1890 -461 1890 -460 1889 -473 1902 -484 1878 -484 1890 -496 1889 -496 1890 -520 1878 -508 1890 -531 1878 -532 1890 -531 1878 -555 1878 -556 1878 -555 1878 -567 1877 -578 1878 -591 1878 -590 1878 -591 1866 -614 1878 -614 1867 -614 1866 -638 1878 -638 1866 -638 1866 -649 1866 -662 1866 -673 1866 -673 1855 -674 1866 -696 1854 -697 1866 -697 1855 -721 1866 -708 1854 -733 1855 -732 1854 -744 1854 -744 1855 -756 1854 -768 1842 -779 1855 -780 1854 -779 1843 -792 1842 -803 1854 -815 1843 -815 1842 -826 1843 -827 1842 -839 1843 -850 1843 -851 1830 -862 1843 -874 1830 -874 1843 -886 1831 -885 1830 -898 1843 -910 1831 -921 1830 -921 1831 -921 1831 -945 1819 -933 1830 -957 1831 -957 1819 -968 1819 -981 1831 -980 1819 -980 1818 -1004 1819 -1004 1819 -1016 1819 -1016 1819 -1027 1819 -1028 1807 -1039 1819 -1051 1807 -1063 1819 -1063 1807 -1075 1807 -1075 1807 -1086 1807 -1099 1807 -1098 1807 -1110 1808 -1111 1807 -1134 1795 -1122 1807 -1145 1795 -1146 1807 -1157 1796 -1158 1795 -1169 1795 -1181 1795 -1181 1796 -1193 1795 -1193 1795 -1205 1784 -1217 -168709 606438zm-84614 -682548l13322 39130 -78259 26646 -13323 -39130 -118 -366 -1241 -3638 -1240 -3591 -1287 -3649 -1299 -3685 -1252 -3567 -1276 -3532 -1311 -3626 -1299 -3567 -1288 -3508 -1322 -3543 -1323 -3543 -1311 -3437 -1347 -3508 -1358 -3543 -1335 -3461 -1334 -3402 -1359 -3425 -1370 -3425 -1382 -3449 -1370 -3378 -1393 -3401 -1382 -3366 -1394 -3308 -1429 -3413 -1382 -3295 -1441 -3331 -1417 -3331 -1418 -3248 -1464 -3354 -1441 -3284 -1429 -3224 -1465 -3260 -1464 -3248 -1453 -3189 -1488 -3224 -1488 -3213 -1500 -3201 -1489 -3189 -1488 -3118 -1523 -3165 -1512 -3154 -1548 -3165 -1523 -3142 -1016 -2019 -18354 -37040 74079 -36709 18354 37040 1134 2303 1642 3354 1618 3331 1630 3366 1618 3378 1630 3449 1606 3402 1594 3413 1583 3425 1583 3437 1594 3496 1559 3461 1559 3472 1571 3532 1536 3496 1511 3449 1560 3579 1511 3519 1512 3544 1524 3602 1476 3508 1512 3638 1476 3602 1489 3614 1464 3638 1453 3590 1464 3662 1453 3685 1453 3709 1429 3696 1406 3638 1417 3697 1429 3791 1394 3733 1393 3732 1406 3815 1370 3756 1358 3744 1394 3862 1370 3874 1323 3756 1335 3839 1358 3897 1334 3898 119 366zm-203268 -373784l25878 32233 -64465 51756 -25878 -32233 -862 -1075 -2020 -2515 -2031 -2504 -2138 -2622 -2079 -2540 -2020 -2456 -2090 -2516 -2126 -2551 -2079 -2481 -2114 -2515 -2150 -2540 -2102 -2468 -2114 -2469 -2173 -2516 -2185 -2539 -2115 -2445 -2137 -2433 -2209 -2516 -2209 -2504 -2149 -2433 -2197 -2468 -2197 -2469 -2221 -2445 -2244 -2492 -2185 -2409 -2267 -2480 -2268 -2493 -2173 -2362 -2292 -2468 -2291 -2481 -2209 -2350 -2315 -2457 -2350 -2504 -2244 -2385 -2303 -2410 -2304 -2421 -2314 -2410 -2351 -2445 -2362 -2444 -2327 -2410 -2350 -2409 -2339 -2398 -2362 -2386 -2398 -2433 -2409 -2433 -2374 -2398 -2362 -2362 -2433 -2421 -2327 -2315 -29327 -29126 58252 -58654 29327 29126 2397 2386 2504 2492 2552 2552 2515 2539 2481 2504 2468 2504 2504 2551 2480 2539 2493 2552 2468 2551 2433 2515 2421 2516 2457 2551 2445 2563 2445 2575 2457 2599 2350 2504 2386 2527 2468 2658 2363 2551 2362 2539 2456 2669 2339 2563 2339 2552 2397 2645 2315 2563 2339 2611 2338 2610 2339 2610 2362 2669 2280 2599 2279 2586 2327 2670 2327 2681 2256 2610 2244 2610 2303 2681 2291 2705 2221 2634 2256 2657 2267 2717 2197 2646 2232 2681 2280 2764 2197 2704 2138 2622 2244 2740 2208 2752 863 1075zm-301394 -293764l31759 26445 -52889 63520 -31760 -26445 -1465 -1217 -3012 -2504 -2976 -2480 -3024 -2504 -2988 -2492 -8882 -7323 -8988 -7299 -9094 -7276 -9178 -7240 -9271 -7205 -9378 -7181 -9508 -7181 -9579 -7145 -9673 -7111 -9780 -7086 -9897 -7063 -9992 -7040 -1465 -1027 -34016 -23481 46961 -68031 34016 23480 1913 1335 10417 7346 10323 7370 10229 7418 10145 7441 10028 7476 9909 7488 9851 7536 9744 7582 9649 7618 9520 7630 9437 7654 9355 7701 3059 2539 3000 2504 3047 2528 2988 2504 1465 1216zm-349005 -234969l36319 19737 -39472 72637 -36319 -19736 -343 -189 -12047 -6508 -12165 -6472 -12260 -6461 -12378 -6437 -12473 -6401 -12578 -6367 -12685 -6342 -12792 -6319 -12898 -6295 -13003 -6260 -13123 -6236 -6566 -3083 -37453 -17492 34984 -74906 37453 17492 6897 3248 13477 6402 13382 6449 13275 6461 13170 6507 13063 6532 12956 6579 12851 6590 12756 6626 12638 6650 12543 6685 12449 6720 342 189zm-380646 -173811l38587 14811 -29622 77173 -38587 -14811 -7476 -2881 -15059 -5752 -15178 -5705 -15295 -5681 -15413 -5670 -15508 -5633 -15614 -5599 -15756 -5575 -15851 -5563 -15956 -5527 -6768 -2315 -39130 -13299 26598 -78260 39130 13299 7051 2409 16264 5622 16134 5658 16016 5669 15945 5717 15815 5752 15697 5763 15602 5800 15508 5846 15390 5870 7476 2882zm-395339 -132024l39732 11398 -22795 79465 -39732 -11398 -11504 -3319 -17788 -5079 -17882 -5055 -18000 -5008 -18118 -4996 -18224 -4960 -18331 -4926 -18461 -4901 -18590 -4878 -1453 -378 -40027 -10323 20645 -80055 40028 10323 1689 449 18803 4925 18697 4972 18590 4996 18485 5032 18354 5067 18236 5078 18142 5126 18000 5126 11504 3319zm-402851 -102720l40347 9000 -18000 80693 -40347 -9000 -10913 -2445 -20209 -4488 -20327 -4453 -20456 -4429 -20563 -4394 -20682 -4358 -20811 -4335 -20929 -4323 -5976 -1216 -40512 -8197 16394 -81024 40512 8197 6165 1264 21118 4346 21000 4382 20894 4406 20775 4441 20646 4476 20539 4476 20422 4536 10913 2445zm-407114 -81331l40700 7169 -14338 81402 -40701 -7169 -11847 -2091 -22500 -3933 -22606 -3910 -22724 -3885 -22855 -3851 -22984 -3815 -23079 -3803 -13819 -2244 -40807 -6579 13158 -81614 40807 6579 13984 2267 23268 3827 23126 3862 23020 3874 22913 3910 22772 3933 22665 3980 11847 2091zm-409584 -65043l40926 5775 -11552 81851 -40925 -5776 -3957 -555 -24590 -3449 -24685 -3425 -24827 -3390 -24957 -3378 -25075 -3342 -25181 -3307 -10051 -1300 -40996 -5267 10535 -81993 40997 5268 10192 1323 25347 3331 25217 3366 25098 3378 24969 3413 24850 3449 24709 3472 3956 556zm-411118 -52276l41067 4665 -9331 82134 -41067 -4665 -3295 -366 -26563 -2989 -26729 -2952 -26846 -2941 -26953 -2906 -27106 -2882 -26492 -2775 -41115 -4276 8552 -82228 41114 4275 26610 2800 27224 2881 27095 2930 26965 2941 26846 2976 26728 3012 3296 366zm-412135 -41953l41162 3732 -7465 82323 -41161 -3732 -5256 -472 -28512 -2563 -28642 -2540 -28760 -2492 -28913 -2480 -29032 -2457 -15248 -1264 -41196 -3390 6779 -82393 41197 3389 15366 1288 29150 2457 29008 2480 28878 2516 28760 2539 28629 2587 5256 472zm-412736 -33496l41232 2965 -5929 82464 -41232 -2964 -5115 -367 -30330 -2161 -30485 -2138 -30614 -2102 -30744 -2067 -30874 -2043 -6473 -426 -41244 -2657 5315 -82488 41244 2657 6567 425 30969 2044 30862 2090 30709 2103 30579 2137 30449 2162 5114 366zm-413174 -26374l41268 2268 -4536 82535 -41267 -2268 -30284 -1677 -32209 -1760 -32350 -1712 -32504 -1701 -32610 -1677 -4914 -260 -41279 -2043 4086 -82559 41280 2043 5008 260 32705 1677 32574 1701 32445 1736 32303 1760 30284 1677zm-413351 -20327l41291 1748 -3496 82583 -41291 -1748 -13512 -567 -33838 -1406 -33981 -1381 -34122 -1359 -34252 -1323 -15272 -578 -41303 -1536 3071 -82606 41303 1535 15343 579 34346 1323 34217 1358 34051 1382 33933 1429 13512 567zm-413528 -15142l41315 1264 -2528 82630 -41315 -1264 -16169 -496 -35492 -1063 -35646 -1039 -35775 -1004 -35906 -980 -6071 -166 -41315 -1063 2126 -82630 41315 1063 6142 166 36000 980 35846 1004 35717 1039 35587 1063 16169 496zm-413599 -10618l41327 851 -1701 82653 -41327 -850 -1582 -24 -37040 -744 -37181 -720 -37323 -685 -37464 -662 -14552 -248 -41326 -685 1370 -82653 41326 685 14623 248 37511 661 37394 685 37252 721 37110 744 1583 23zm-413658 -6626l41327 473 -945 82653 -41327 -472 -3909 -36 -38599 -425 -38752 -401 -38882 -378 -39035 -343 -5988 -47 -41327 -319 638 -82654 41326 319 6036 48 39106 342 38953 378 38799 402 38670 425 3909 35zm-413658 -3094l41327 130 -260 82653 -41327 -130 -23456 -82 -33827 -95 -33721 -47 -33602 0 -33484 0 -7016 24 -41327 94 -189 -82654 41327 -94 7110 -24 33579 -23 33673 23 33815 48 33921 94 23457 83zm-413859 1157l41327 -413 827 82653 -41327 414 -8941 83 -32421 342 -32315 390 -32209 413 -32079 449 -27118 413 -41327 650 -1299 -82654 41327 -649 27213 -414 32173 -448 32280 -414 32409 -390 32539 -342 8941 -83zm-413906 7110l41315 -1051 2103 82630 -41315 1051 -8870 213 -30957 803 -30803 827 -30709 874 -30602 898 -30473 945 -2551 82 -41315 1347 -2693 -82630 41315 -1347 2646 -82 30590 -945 30697 -898 30803 -874 30922 -827 31027 -803 8870 -213zm-413799 13725l41291 -1760 3520 82583 -41292 1760 -19311 803 -29350 1275 -29268 1311 -29138 1335 -29031 1370 -28796 1394 -41279 2031 -4063 -82559 41279 -2031 28914 -1418 29150 -1370 29232 -1334 29362 -1311 29469 -1276 19311 -803zm-413552 21165l41256 -2527 5055 82512 -41256 2527 -8315 496 -27827 1725 -27720 1748 -27603 1795 -27496 1831 -27389 1842 -18284 1276 -41232 2870 -5740 -82465 41232 -2870 18378 -1275 27508 -1867 27614 -1830 27720 -1796 27839 -1771 27945 -1725 8315 -496zm-413150 29563l41197 -3413 6827 82394 -41197 3413 -3012 248 -26221 2185 -26102 2232 -26020 2256 -25901 2292 -25807 2303 -25678 2350 -5515 508 -41150 3851 -7701 -82300 41150 -3850 5634 -532 25819 -2350 25925 -2327 26020 -2291 26137 -2280 26244 -2232 26339 -2209 3012 -248zm-412548 39237l41091 -4500 9000 82181 -41091 4500 -24130 2622 -24449 2693 -24342 2728 -24248 2764 -24154 2787 -24047 2811 -18496 2209 -41044 4902 -9803 -82087 41044 -4902 18637 -2208 24166 -2835 24272 -2811 24389 -2764 24485 -2752 24590 -2716 24130 -2622zm-411437 50374l40937 -5693 11386 81874 -40938 5693 -16925 2338 -22736 3178 -22630 3212 -22547 3248 -22453 3260 -22323 3283 -22252 3319 -11256 1701 -40866 6213 -12425 -81733 40866 -6212 11421 -1725 22394 -3342 22488 -3307 22595 -3284 22665 -3248 22795 -3236 22878 -3201 16926 -2338zm-409820 63449l40725 -7063 14126 81448 -40725 7063 -4063 697 -20976 3662 -20882 3697 -20799 3696 -20681 3745 -20587 3767 -20516 3792 -20397 3803 -13111 2492 -40606 7724 -15449 -81212 40606 -7725 13276 -2516 20587 -3850 20657 -3815 20752 -3791 20870 -3768 20941 -3744 21048 -3721 21141 -3685 4063 -696zm-407410 79039l40394 -8740 17480 80787 -40393 8741 -1595 342 -19098 4158 -18992 4181 -18910 4204 -18827 4229 -18732 4263 -18638 4276 -18543 4299 -18461 4323 -8622 2043 -40205 9567 -19134 -80409 40205 -9567 8811 -2091 18626 -4370 18733 -4346 18826 -4323 18922 -4287 18992 -4276 19098 -4252 19181 -4228 19288 -4181 1594 -343zm-403701 97937l39886 -10819 21638 79772 -39886 10819 -1205 319 -17126 4665 -17020 4689 -16925 4701 -16866 4736 -16748 4748 -16689 4784 -16594 4795 -16489 4819 -16429 4842 -5941 1772 -39602 11835 -23670 -79205 39603 -11835 6153 -1842 16595 -4890 16724 -4890 16807 -4842 16855 -4831 16984 -4819 17055 -4783 17138 -4772 17232 -4736 17315 -4713 1205 -319zm-397949 121347l39071 -13477 26952 78142 -39070 13477 -10477 3590 -14976 5185 -14882 5209 -14811 5220 -14717 5256 -14657 5268 -14551 5268 -14469 5303 -14398 5327 -14315 5338 -12165 4583 -38657 14622 -29245 -77315 38658 -14622 12402 -4677 14551 -5433 14610 -5398 14728 -5398 14788 -5362 14846 -5339 14953 -5326 15047 -5315 15118 -5280 15189 -5256 10477 -3590zm-388394 150909l37807 -16712 33425 75614 -37807 16713 -4122 1807 -12792 5681 -12708 5693 -12650 5716 -12543 5729 -12473 5752 -12425 5763 -12319 5776 -12224 5787 -12166 5823 -12106 5835 -12024 5835 -7759 3826 -37075 18284 -36567 -74150 37075 -18283 8043 -3945 12283 -5977 12343 -5952 12425 -5941 12532 -5929 12602 -5894 12638 -5882 12732 -5870 12827 -5847 12886 -5834 12968 -5811 13052 -5800 4122 -1807zm-372568 189095l35658 -20905 41811 71315 -35658 20905 -945 555 -10452 6154 -10370 6165 -10323 6213 -10252 6201 -10170 6212 -10086 6236 -10016 6225 -9945 6260 -9898 6283 -9826 6284 -9733 6295 -10181 6649 -10122 6674 -5823 3862 -34358 22972 -45945 -68716 34358 -22973 6130 -4074 10406 -6863 10512 -6862 10039 -6484 10110 -6473 10158 -6448 10252 -6449 10323 -6437 10393 -6402 10477 -6401 10512 -6367 10582 -6354 10677 -6354 10760 -6343 945 -555zm-344965 238441l31973 -26185 52370 63945 -31973 26185 -1606 1311 -8433 6933 -8350 6945 -8292 6957 -8232 6968 -8150 6969 -8090 6969 -8032 6992 -7949 6980 -7854 6980 -7842 7028 -7760 7004 -7666 7004 -7630 7015 -7547 7016 -7500 7040 -968 909 -29941 28488 -56977 -59882 29941 -28488 1276 -1216 7760 -7276 7830 -7276 7890 -7275 7973 -7264 8043 -7264 8079 -7240 8185 -7264 8256 -7240 8291 -7228 8374 -7229 8457 -7228 8515 -7205 8575 -7193 8681 -7204 8717 -7170 1606 -1311zm-300130 294532l26504 -31712 63425 53007 -26504 31713 -4417 5268 -5835 7016 -5775 7004 -5693 6968 -5658 6980 -5598 6969 -5540 6968 -5492 6969 -5433 6945 -5374 6956 -5327 6934 -5255 6921 -5197 6909 -5174 6933 -5090 6886 -5043 6886 -4997 6886 -4948 6874 -3402 4783 -23917 33709 -67418 -47835 23918 -33708 3614 -5067 5138 -7158 5208 -7169 5256 -7193 5327 -7193 5362 -7193 5433 -7216 5492 -7229 5540 -7216 5610 -7240 5646 -7229 5704 -7252 5776 -7252 5811 -7252 5894 -7287 5953 -7276 6011 -7264 6048 -7275 4417 -5268zm-236469 348532l19347 -36531 73063 38692 -19347 36532 -756 1429 -3354 6366 -3319 6331 -3236 6272 -3236 6295 -3166 6260 -3141 6224 -3083 6201 -3047 6189 -3012 6165 -2965 6130 -2917 6107 -2894 6118 -2858 6059 -2799 6023 -2764 6000 -2717 5977 -2681 5964 -2645 5930 -2622 5929 -2575 5893 -2528 5823 -2480 5811 -2469 5799 -1937 4619 -15921 38149 -76299 -31842 15921 -38150 2079 -4925 2563 -6059 2622 -6118 2669 -6154 2693 -6130 2717 -6165 2763 -6213 2823 -6248 2859 -6283 2905 -6307 2941 -6331 2976 -6343 3012 -6354 3059 -6390 3107 -6437 3153 -6449 3189 -6472 3248 -6508 3260 -6508 3331 -6543 3354 -6555 3425 -6626 3461 -6591 3472 -6626 756 -1429z"/>
 </g>
</svg>
