<?xml version="1.0" encoding="utf-8"?>
<!-- Generator: Adobe Illustrator 19.0.1, SVG Export Plug-In . SVG Version: 6.00 Build 0)  -->
<svg version="1.1" id="Слой_1" xmlns="http://www.w3.org/2000/svg" xmlns:xlink="http://www.w3.org/1999/xlink" x="0px" y="0px"
	 viewBox="0 0 215.1 102.3" style="enable-background:new 0 0 215.1 102.3;" xml:space="preserve">
<g>
	<path style="fill:#040D0B;" d="M159.6,26.5h-9.4v13.4h9.4h0h0.4c0.7,0,1.5-0.2,2.1-0.5c0.8-0.3,1.6-0.8,2.2-1.5
		c0.6-0.6,1.1-1.4,1.5-2.2c0.3-0.8,0.5-1.7,0.5-2.6c0-0.9-0.2-1.8-0.5-2.6c-0.3-0.8-0.8-1.5-1.5-2.2c-0.6-0.6-1.4-1.1-2.2-1.5
		c-0.7-0.3-1.4-0.4-2.1-0.5H159.6L159.6,26.5L159.6,26.5z M14.9,30.8c-3.2,3.3-4.8,7.7-4.8,12.1c0,4.4,1.6,8.9,4.8,12.3l0,0
		c3.3,3.3,8,5,12.9,5.3c5,0.3,10.1-1.1,13.8-3.9l1.3-1l0,1.6L42.9,65l0,0.4l-0.4,0.2c-5.2,3-11.5,3.9-17.5,3.1
		c-6.3-0.8-12.2-3.5-16.1-7.4l0,0c-5-5-7.5-11.6-7.5-18.2c0-6.6,2.5-13.2,7.5-18.2l0,0c3.9-4,9.8-6.6,16.1-7.4
		c6-0.8,12.3,0.1,17.5,3.1l0.4,0.2v0.5v7.7v1.6l-1.3-1c-3.7-2.8-8.8-4.2-13.8-3.9C23,25.8,18.2,27.6,14.9,30.8L14.9,30.8L14.9,30.8z
		 M185.9,11.5l27.6-9v9H185.9L185.9,11.5z M71.2,35.3l-5.4,12h10.8L71.2,35.3L71.2,35.3z M80.4,56.1H61.9L57,67.3l-0.2,0.5h-0.5
		h-7.8h-1.2l0.5-1.1L70.4,18l0.7-1.5l0.7,1.5l22.7,48.7l0.5,1.1h-1.2h-7.8h-0.5l-0.2-0.5L80.4,56.1L80.4,56.1z M128.1,44.8H110V67
		v0.8h-0.8h-7.1h-0.8V67l0-48v-0.8h0.8l26,0h0.8V19v7.1v0.8h-0.8H110V36h18.1h0.8v0.8V44v0.8H128.1L128.1,44.8z M212.7,26.9h-18.1
		V36h18.1h0.8v0.8V44v0.8h-0.8h-18.1v14.3h18.1h0.8v0.8V67v0.8h-0.8h-25.6h-0.8v0h-0.4V67l0-48v-0.8h0.8l26,0h0.8V19v7.1v0.8H212.7
		L212.7,26.9z M145.9,17.8h13.7h0h0.8v0c1.8,0.1,3.5,0.5,5.1,1.1c1.9,0.8,3.6,1.9,5,3.3c1.4,1.4,2.6,3.1,3.3,5
		c0.8,1.8,1.2,3.8,1.2,5.9c0,2.1-0.4,4.1-1.2,5.9c-0.8,1.9-1.9,3.6-3.3,5c-0.9,0.9-1.8,1.6-2.9,2.3c-0.8,0.5-1.6,0.9-2.4,1.2
		l11.8,19.1l0.7,1.2h-1.4h-9.3h-0.4l-0.2-0.4L155,48.6h-4.7V67v0.8h-0.8h-7.1h-0.8V67V47.8v-3.6V22.2v-2.8v-0.7v-0.8h0.8H145.9z"/>
	<path style="fill:#040D0B;" d="M152.3,87c0.1,0.1,0.3,0.2,0.5,0.3l0.1,0.1v0.2v1.3v0.8l-0.6-0.6c-0.1-0.1-0.1-0.1-0.2-0.2
		c-0.1-0.1-0.2-0.1-0.3-0.2l0,0c-0.1-0.1-0.2-0.2-0.3-0.2l0,0c-0.1-0.1-0.2-0.1-0.3-0.2l0,0c-0.2-0.1-0.5-0.2-0.7-0.3h0
		c-0.3-0.1-0.5-0.1-0.8-0.1v0c-0.3,0-0.5,0-0.7,0.1c-0.2,0-0.5,0.1-0.7,0.2h0c-0.2,0.1-0.4,0.2-0.6,0.3v0c-0.2,0.1-0.4,0.3-0.5,0.4
		c-0.2,0.2-0.3,0.4-0.4,0.5c-0.1,0.2-0.2,0.4-0.3,0.6l0,0c-0.1,0.2-0.2,0.5-0.2,0.7l0,0c0,0.2-0.1,0.5-0.1,0.8v0
		c0,0.2,0,0.5,0.1,0.7h0c0,0.2,0.1,0.4,0.2,0.6v0c0.1,0.2,0.2,0.4,0.2,0.5c0.1,0.2,0.2,0.3,0.3,0.5v0c0.1,0.1,0.3,0.3,0.4,0.4
		c0.1,0.1,0.3,0.2,0.4,0.3l0,0c0.1,0.1,0.3,0.2,0.5,0.3c0.2,0.1,0.3,0.1,0.5,0.2v0c0.2,0,0.3,0.1,0.5,0.1c0.2,0,0.3,0,0.5,0v0
		c0.1,0,0.3,0,0.4,0c0.1,0,0.3,0,0.4-0.1c0.1,0,0.3-0.1,0.4-0.1c0.1,0,0.3-0.1,0.4-0.2c0.1,0,0.2-0.1,0.2-0.1l0,0
		c0.1,0,0.1-0.1,0.2-0.1l0,0c0.1-0.1,0.3-0.2,0.3-0.3l0,0l0.1-0.1c0,0,0.1-0.1,0.1-0.1l0.6-0.6v0.8v1.3v0.2l-0.1,0.1
		c-0.2,0.1-0.4,0.3-0.6,0.4c-0.2,0.1-0.4,0.2-0.6,0.3l0,0c-0.2,0.1-0.4,0.1-0.5,0.2v0c-0.2,0-0.4,0.1-0.5,0.1h0
		c-0.2,0-0.3,0-0.5,0.1c-0.1,0-0.3,0-0.4,0h0c-0.3,0-0.6,0-0.9-0.1c-0.3,0-0.6-0.1-0.8-0.2v0c-0.3-0.1-0.5-0.2-0.8-0.3
		c-0.2-0.1-0.5-0.3-0.7-0.4c-0.2-0.2-0.4-0.3-0.6-0.5c-0.2-0.2-0.4-0.4-0.5-0.6l0,0c-0.2-0.2-0.3-0.5-0.4-0.7
		c-0.1-0.2-0.2-0.5-0.3-0.8v0c-0.1-0.3-0.2-0.5-0.2-0.8c0-0.3-0.1-0.6-0.1-0.9v0c0-0.4,0-0.8,0.1-1.1c0.1-0.4,0.2-0.7,0.3-1v0
		c0.1-0.3,0.3-0.6,0.5-0.9c0.2-0.3,0.4-0.5,0.6-0.8c0.2-0.2,0.5-0.5,0.8-0.6l0,0c0.3-0.2,0.6-0.3,0.9-0.5c0.3-0.1,0.7-0.2,1-0.3
		c0.4-0.1,0.7-0.1,1.1-0.1h0c0.1,0,0.2,0,0.3,0c0.1,0,0.2,0,0.3,0l0,0c0.1,0,0.2,0,0.4,0c0.1,0,0.3,0.1,0.4,0.1v0
		c0.1,0,0.3,0.1,0.4,0.1c0.1,0,0.3,0.1,0.4,0.2C152,86.9,152.1,86.9,152.3,87L152.3,87L152.3,87z M137.5,86.6h2v10.1h-2V86.6
		L137.5,86.6z M132.5,88.3h-2.3v8.4h-2v-8.4H126v-1.7h6.5V88.3L132.5,88.3z M121.4,86.6v1.7h-3.6v2.3h3.5v1.7h-3.5V95h3.6v1.7h-5.6
		V86.6H121.4L121.4,86.6z M97.9,96.7l2.6-10.4l3.7,6.7l3.7-6.7l2.6,10.4h-1.7l-1.6-5.6l-2.9,5.9l-3-5.9l-1.4,5.6H97.9L97.9,96.7z
		 M164.5,87.5l-1,1.4c-0.6-0.8-2.2-1.4-3-0.6c-0.2,0.2-0.3,0.5-0.3,0.8c0,0.3,0.1,0.5,0.3,0.7c0.7,0.6,2.6,0.8,3.5,1.7
		c0.6,0.5,0.9,1.2,0.9,2.1c0,1-0.3,1.8-1,2.4c-0.7,0.6-1.5,0.9-2.5,0.9c-1.5,0-2.6-0.6-3.5-1.9l1.3-1.2c0.2,0.5,0.5,0.8,0.9,1
		c0.7,0.4,1.8,0.6,2.5,0c0.3-0.3,0.4-0.6,0.4-1c0-0.4-0.1-0.7-0.4-0.9c-0.7-0.7-2.5-0.8-3.5-1.7c-0.5-0.5-0.8-1.1-0.8-1.9
		c0-0.8,0.3-1.5,0.8-2.1c0.6-0.6,1.4-0.9,2.4-0.9C162.8,86.3,163.8,86.7,164.5,87.5L164.5,87.5z M92.9,87.5l-1,1.4
		c-0.6-0.8-2.2-1.4-3-0.6c-0.2,0.2-0.3,0.5-0.3,0.8c0,0.3,0.1,0.5,0.3,0.7c0.7,0.6,2.6,0.8,3.5,1.7c0.6,0.5,0.9,1.2,0.9,2.1
		c0,1-0.3,1.8-1,2.4c-0.7,0.6-1.5,0.9-2.5,0.9c-1.5,0-2.6-0.6-3.5-1.9l1.3-1.2c0.2,0.5,0.5,0.8,0.9,1c0.7,0.4,1.8,0.6,2.5,0
		c0.3-0.3,0.4-0.6,0.4-1c0-0.4-0.1-0.7-0.4-0.9c-0.7-0.7-2.5-0.8-3.5-1.7c-0.5-0.5-0.8-1.1-0.8-1.9c0-0.8,0.3-1.5,0.8-2.1
		c0.6-0.6,1.4-0.9,2.4-0.9C91.2,86.3,92.1,86.7,92.9,87.5L92.9,87.5z M76.4,96.9c-0.3,0-0.6,0.1-0.9,0.1h0c-0.3,0-0.6,0-0.9-0.1
		c-0.3,0-0.6-0.1-0.8-0.2h0c-0.3-0.1-0.5-0.2-0.8-0.3v0c-0.2-0.1-0.5-0.3-0.7-0.4l0,0c-0.2-0.2-0.4-0.3-0.6-0.5
		c-0.2-0.2-0.4-0.4-0.5-0.6l0,0c-0.2-0.2-0.3-0.5-0.4-0.7c-0.1-0.2-0.2-0.5-0.3-0.8h0c-0.1-0.3-0.2-0.5-0.2-0.8
		c0-0.3-0.1-0.6-0.1-0.9v0c0-0.3,0-0.6,0.1-0.9c0-0.3,0.1-0.6,0.2-0.8v0c0.1-0.3,0.2-0.5,0.3-0.8c0.1-0.2,0.3-0.5,0.4-0.7l0,0
		c0.2-0.2,0.3-0.4,0.5-0.6c0.2-0.2,0.4-0.4,0.6-0.5l0,0c0.2-0.2,0.5-0.3,0.7-0.4c0.2-0.1,0.5-0.2,0.8-0.3v0c0.3-0.1,0.5-0.2,0.8-0.2
		c0.3,0,0.6-0.1,0.9-0.1h0c0.3,0,0.6,0,0.9,0.1c0.3,0,0.6,0.1,0.8,0.2l0,0c0.3,0.1,0.5,0.2,0.8,0.3c0.2,0.1,0.5,0.3,0.7,0.4h0
		c0.2,0.2,0.4,0.3,0.6,0.5v0c0.2,0.2,0.4,0.4,0.5,0.6v0c0.2,0.2,0.3,0.5,0.4,0.7c0.1,0.2,0.2,0.5,0.3,0.8v0c0.1,0.3,0.2,0.6,0.2,0.8
		c0,0.3,0.1,0.6,0.1,0.9v0c0,0.3,0,0.6-0.1,0.9c0,0.3-0.1,0.6-0.2,0.8h0c-0.1,0.3-0.2,0.5-0.3,0.8c-0.1,0.2-0.3,0.5-0.4,0.7l0,0
		c-0.2,0.2-0.3,0.4-0.5,0.6c-0.2,0.2-0.4,0.4-0.6,0.5v0c-0.2,0.2-0.5,0.3-0.7,0.4v0c-0.2,0.1-0.5,0.2-0.8,0.3l0,0
		C77,96.8,76.7,96.9,76.4,96.9L76.4,96.9z M76.3,88.1c-0.2,0-0.5-0.1-0.7-0.1h0c-0.2,0-0.5,0-0.7,0.1c-0.2,0-0.5,0.1-0.7,0.2l0,0
		c-0.2,0.1-0.4,0.2-0.6,0.3v0c-0.2,0.1-0.4,0.3-0.5,0.4c-0.2,0.2-0.3,0.3-0.4,0.5c-0.1,0.2-0.2,0.4-0.3,0.6l0,0
		c-0.1,0.2-0.2,0.5-0.2,0.7c0,0.2-0.1,0.5-0.1,0.7c0,0.3,0,0.5,0.1,0.7c0,0.2,0.1,0.5,0.2,0.7l0,0c0.1,0.2,0.2,0.4,0.3,0.6
		c0.1,0.2,0.3,0.4,0.4,0.5c0.2,0.2,0.3,0.3,0.5,0.4v0c0.2,0.1,0.4,0.2,0.6,0.3l0,0c0.2,0.1,0.4,0.2,0.7,0.2c0.2,0,0.5,0.1,0.7,0.1h0
		c0.2,0,0.5,0,0.7-0.1c0.2,0,0.5-0.1,0.7-0.2l0,0c0.2-0.1,0.4-0.2,0.6-0.3c0.2-0.1,0.4-0.3,0.5-0.4c0.2-0.2,0.3-0.3,0.4-0.5
		c0.1-0.2,0.2-0.4,0.3-0.6l0,0c0.1-0.2,0.2-0.5,0.2-0.7c0-0.2,0.1-0.5,0.1-0.7c0-0.3,0-0.5-0.1-0.7c0-0.2-0.1-0.5-0.2-0.7l0,0
		c-0.1-0.2-0.2-0.4-0.3-0.6c-0.1-0.2-0.3-0.4-0.4-0.5c-0.2-0.2-0.3-0.3-0.5-0.4c-0.2-0.1-0.4-0.2-0.6-0.3l0,0
		C76.8,88.2,76.5,88.1,76.3,88.1L76.3,88.1z M64.5,87c0.1,0.1,0.3,0.2,0.5,0.3l0.1,0.1v0.2v1.3v0.8l-0.6-0.6
		c-0.1-0.1-0.1-0.1-0.2-0.2c-0.1-0.1-0.2-0.1-0.3-0.2l0,0c-0.1-0.1-0.2-0.2-0.3-0.2l0,0c-0.1-0.1-0.2-0.1-0.3-0.2l0,0
		c-0.2-0.1-0.5-0.2-0.7-0.3h0C62.4,88,62.1,88,61.9,88v0c-0.3,0-0.5,0-0.7,0.1c-0.2,0-0.5,0.1-0.7,0.2h0c-0.2,0.1-0.4,0.2-0.6,0.3v0
		c-0.2,0.1-0.4,0.3-0.5,0.4c-0.2,0.2-0.3,0.4-0.4,0.5c-0.1,0.2-0.2,0.4-0.3,0.6l0,0c-0.1,0.2-0.2,0.5-0.2,0.7l0,0
		c0,0.2-0.1,0.5-0.1,0.8v0c0,0.2,0,0.5,0.1,0.7h0c0,0.2,0.1,0.4,0.2,0.6v0c0.1,0.2,0.2,0.4,0.2,0.5c0.1,0.2,0.2,0.3,0.3,0.5l0,0
		c0.1,0.1,0.3,0.3,0.4,0.4c0.1,0.1,0.3,0.2,0.4,0.3l0,0c0.2,0.1,0.3,0.2,0.5,0.3c0.2,0.1,0.3,0.1,0.5,0.2v0c0.2,0,0.3,0.1,0.5,0.1
		c0.2,0,0.3,0,0.5,0v0c0.1,0,0.3,0,0.4,0c0.1,0,0.3,0,0.4-0.1c0.1,0,0.3-0.1,0.4-0.1c0.1,0,0.3-0.1,0.4-0.2c0.1,0,0.2-0.1,0.2-0.1
		l0,0c0.1,0,0.1-0.1,0.2-0.1l0,0c0.1-0.1,0.3-0.2,0.3-0.3l0,0l0.1-0.1c0,0,0.1-0.1,0.1-0.1l0.6-0.6v0.8v1.3v0.2L65,96
		c-0.2,0.1-0.4,0.3-0.6,0.4c-0.2,0.1-0.4,0.2-0.6,0.3l0,0c-0.2,0.1-0.4,0.1-0.5,0.2v0c-0.2,0-0.4,0.1-0.5,0.1h0
		c-0.2,0-0.3,0-0.5,0.1c-0.1,0-0.3,0-0.4,0h0c-0.3,0-0.6,0-0.9-0.1c-0.3,0-0.6-0.1-0.8-0.2v0c-0.3-0.1-0.5-0.2-0.8-0.3
		c-0.2-0.1-0.5-0.3-0.7-0.4c-0.2-0.2-0.4-0.3-0.6-0.5c-0.2-0.2-0.4-0.4-0.5-0.6l0,0c-0.2-0.2-0.3-0.5-0.4-0.7
		c-0.1-0.2-0.2-0.5-0.3-0.8v0c-0.1-0.3-0.2-0.5-0.2-0.8c0-0.3-0.1-0.6-0.1-0.9v0c0-0.4,0-0.8,0.1-1.1c0.1-0.4,0.2-0.7,0.3-1v0
		c0.1-0.3,0.3-0.6,0.5-0.9c0.2-0.3,0.4-0.5,0.6-0.8c0.2-0.2,0.5-0.5,0.8-0.6l0,0c0.3-0.2,0.6-0.3,0.9-0.5c0.3-0.1,0.7-0.2,1-0.3
		c0.4-0.1,0.7-0.1,1.1-0.1h0c0.1,0,0.2,0,0.3,0c0.1,0,0.2,0,0.3,0l0,0c0.1,0,0.2,0,0.4,0c0.1,0,0.3,0.1,0.4,0.1v0
		c0.1,0,0.3,0.1,0.4,0.1c0.1,0,0.3,0.1,0.4,0.2C64.2,86.9,64.4,86.9,64.5,87L64.5,87z"/>
</g>
</svg>
