<?xml version="1.0" encoding="UTF-8"?>
<!DOCTYPE svg PUBLIC "-//W3C//DTD SVG 1.1//EN" "http://www.w3.org/Graphics/SVG/1.1/DTD/svg11.dtd">
<!-- Creator: CorelDRAW X7 -->
<svg xmlns="http://www.w3.org/2000/svg" xml:space="preserve" width="1186px" height="195px" version="1.1" style="shape-rendering:geometricPrecision; text-rendering:geometricPrecision; image-rendering:optimizeQuality; fill-rule:evenodd; clip-rule:evenodd"
viewBox="0 0 11860000 1950001"
 xmlns:xlink="http://www.w3.org/1999/xlink">
 <defs>
  <style type="text/css">
   <![CDATA[
    .fil0 {fill:black;fill-rule:nonzero}
   ]]>
  </style>
 </defs>
 <g id="Слой_x0020_1">
  <metadata id="CorelCorpID_0Corel-Layer"/>
  <path class="fil0" d="M11102 65209l-13051 -39225 78449 -26102 13051 39224 5811 16607 6390 16511 6957 16418 7523 16334 8079 16252 8646 16182 9224 16086 9780 16016 5681 8764 22027 34972 -69945 44055 -22027 -34972 -5681 -8764 -10984 -17976 -10382 -18142 -9804 -18307 -9188 -18473 -8563 -18626 -7949 -18779 -7335 -18945 -6709 -19110zm11850847 1628611l-575032 256299 945 -1948 921 -1949 921 -1949 922 -1961 909 -1949 898 -1948 886 -1949 885 -1949 874 -1949 874 -1949 863 -1960 850 -1949 850 -1949 839 -1949 827 -1949 827 -1948 814 -1949 804 -1949 803 -1949 791 -1949 791 -1948 780 -1949 768 -1949 756 -1949 755 -1949 756 -1949 733 -1948 732 -1949 732 -1949 721 -1949 708 -1949 697 -1948 697 -1949 685 -1937 685 -1949 673 -1949 662 -1949 649 -1949 650 -1948 650 -1949 626 -1937 637 -1949 615 -1949 614 -1949 602 -1949 591 -1937 590 -1948 579 -1949 579 -1949 567 -1937 555 -1949 555 -1949 543 -1948 532 -1937 531 -1949 520 -1949 520 -1937 496 -1949 496 -1949 496 -1937 484 -1949 472 -1948 473 -1937 461 -1949 448 -1949 449 -1937 437 -1949 425 -1937 426 -1949 413 -1937 413 -1949 390 -1948 402 -1937 378 -1949 378 -1937 366 -1949 366 -1937 354 -1949 343 -1937 342 -1949 331 -1937 331 -1937 307 -1949 307 -1937 307 -1948 295 -1937 284 -1949 283 -1937 272 -1937 260 -1949 259 -1937 248 -1937 237 -1949 236 -1937 224 -1937 213 -1949 213 -1937 200 -1937 201 -1949 189 -1937 177 -1937 177 -1948 166 -1937 153 -1937 154 -1937 142 -1949 106 -1607 -5941 71 -47528 544 -36815 401 -41326 437 -874 -82653 41326 -437 36768 -402 47480 -543 5670 -71 -95 -969 -201 -1937 -200 -1937 -213 -1937 -224 -1937 -237 -1925 -236 -1937 -236 -1937 -248 -1937 -260 -1925 -272 -1937 -271 -1937 -284 -1937 -283 -1925 -295 -1937 -307 -1937 -319 -1926 -319 -1937 -319 -1937 -343 -1925 -330 -1937 -355 -1937 -354 -1925 -366 -1937 -378 -1937 -378 -1925 -390 -1937 -390 -1925 -401 -1937 -414 -1926 -413 -1937 -425 -1925 -437 -1937 -437 -1937 -449 -1925 -461 -1937 -460 -1925 -473 -1925 -472 -1937 -484 -1926 -496 -1937 -497 -1925 -519 -1937 -508 -1925 -532 -1937 -531 -1925 -532 -1925 -543 -1937 -555 -1926 -567 -1937 -567 -1925 -579 -1925 -578 -1937 -591 -1925 -602 -1925 -603 -1937 -614 -1926 -626 -1925 -626 -1925 -638 -1937 -649 -1925 -650 -1925 -661 -1937 -673 -1926 -674 -1925 -673 -1925 -697 -1925 -697 -1937 -708 -1925 -709 -1926 -720 -1925 -733 -1925 -732 -1937 -744 -1925 -744 -1925 -768 -1926 -756 -1925 -779 -1925 -780 -1925 -791 -1925 -792 -1926 -803 -1937 -815 -1925 -815 -1925 -826 -1925 -839 -1925 -839 -1926 -850 -1925 -850 -1925 -863 -1925 -874 -1925 -885 -1926 -886 -1925 -898 -1925 -897 -1925 -910 -1925 -921 -1926 -921 -1925 -934 -1913 -933 -1925 -956 -1926 -945 -1925 -969 -1925 -968 -1925 -980 -1925 -981 -1926 -992 -1913 582166 239634zm-856737 -30874l41327 -319 638 82654 -41327 319 -5776 35 -49334 366 -49583 343 -49831 319 -10901 70 -41327 225 -449 -82654 41327 -224 10854 -71 49784 -319 49535 -342 49287 -367 5776 -35zm-413103 2232l41327 -106 213 82654 -41327 106 -44811 130 -51413 118 -51638 83 -17540 23 -41326 36 -71 -82654 41326 -35 17493 -24 51590 -83 51366 -118 44811 -130zm-413126 284l41327 94 -189 82654 -41327 -95 -48401 -94 -53020 -130 -53209 -165 -10772 -48 -41326 -165 330 -82654 41327 166 10725 47 53161 165 52973 130 48401 95zm-413150 -1689l41327 271 -543 82654 -41327 -272 -9850 -59 -54249 -366 -54425 -413 -46890 -390 -41326 -354 708 -82654 41327 354 46843 390 54354 414 54201 366 9850 59zm-413102 -3697l41326 484 -968 82654 -41327 -484 -34653 -390 -55453 -673 -55583 -709 -19724 -272 -41327 -579 1157 -82653 41327 579 19654 271 55535 709 55382 673 34654 390zm-413079 -5752l41326 685 -1370 82654 -41326 -685 -11965 -189 -56315 -957 -56410 -1004 -40712 -756 -41327 -780 1559 -82653 41327 779 40642 756 56362 1004 56244 957 11965 189zm-413009 -7902l41327 933 -1866 82654 -41327 -933 -51767 -1134 -57071 -1311 -56504 -1346 -41315 -993 1984 -82629 41315 992 56433 1322 57024 1311 51767 1134zm-412972 -10134l41315 1158 -2315 82630 -41315 -1158 -39484 -1086 -57556 -1630 -57637 -1677 -10689 -319 -41315 -1252 2503 -82630 41315 1252 10619 319 57567 1677 57507 1630 39485 1086zm-412902 -12507l41315 1393 -2788 82630 -41315 -1393 -30189 -1004 -57897 -1985 -57933 -2019 -19323 -697 -41303 -1500 3000 -82607 41303 1500 19252 697 57862 2020 57827 1961 30189 1004zm-412796 -14989l41304 1654 -3308 82606 -41303 -1653 -22724 -898 -58040 -2338 -58063 -2398 -26468 -1122 -41291 -1760 3519 -82583 41292 1760 26397 1122 57969 2374 57992 2339 22724 897zm-412689 -17657l41291 1913 -3826 82583 -41292 -1913 -15909 -733 -58040 -2716 -58004 -2788 -33318 -1630 -41280 -2043 4087 -82559 41279 2043 33225 1630 57933 2764 57945 2717 15909 732zm-412524 -20504l41268 2209 -4417 82535 -41268 -2209 -8563 -448 -57851 -3130 -57803 -3189 -40996 -2303 -41268 -2339 4678 -82535 41267 2338 40902 2303 57732 3189 57756 3130 8563 449zm-412276 -23610l41256 2575 -5149 82511 -41256 -2574 -57000 -3520 -57426 -3614 -50681 -3248 -41244 -2670 5339 -82488 41244 2669 50587 3248 57330 3591 57000 3520zm-412110 -26977l41232 2918 -5835 82464 -41232 -2917 -44598 -3118 -56870 -4063 -56788 -4122 -6803 -508 -41220 -3071 6141 -82441 41221 3071 6708 508 56670 4122 56775 4039 44599 3118zm-411804 -30649l41197 3295 -6590 82394 -41197 -3296 -28063 -2220 -56138 -4524 -56032 -4582 -24720 -2079 -41185 -3461 6921 -82370 41185 3461 24603 2055 55913 4583 56043 4523 28063 2221zm-411449 -34725l41162 3709 -7418 82323 -41161 -3709 -6248 -555 -55252 -5008 -55110 -5090 -48213 -4524 -41150 -3898 7796 -82299 41149 3898 48071 4523 54992 5067 55134 5008 6248 555zm-410917 -39319l41114 4229 -8457 82228 -41114 -4228 -32173 -3272 -54012 -5587 -53858 -5669 -24603 -2646 -41090 -4429 8858 -82181 41091 4429 24460 2622 53717 5646 53893 5587 32174 3271zm-410351 -44445l41055 4808 -9614 82110 -41055 -4807 -47929 -5563 -52571 -6201 -52382 -6284 -11528 -1417 -41019 -5031 10063 -82040 41019 5032 11386 1393 52217 6260 52429 6177 47929 5563zm-409666 -50362l40985 5374 -10748 81969 -40985 -5374 -897 -107 -51118 -6755 -50894 -6827 -50681 -6922 -10607 -1476 -40937 -5716 11433 -81874 40937 5716 10441 1453 50493 6897 50728 6804 50953 6732 897 106zm-408508 -57177l40866 6201 -12401 81732 -40866 -6201 -42591 -6401 -49004 -7500 -48756 -7583 -23350 -3685 -40819 -6496 12992 -81638 40819 6496 23161 3662 48544 7535 48815 7476 42590 6402zm-407256 -65303l40725 7039 -14079 81449 -40725 -7039 -18460 -3154 -46902 -8173 -46618 -8268 -46335 -8362 -4972 -921 -40642 -7524 15047 -81283 40642 7523 4713 874 46098 8315 46382 8221 46665 8149 18461 3154zm-405295 -75048l40523 8162 -16323 81047 -40523 -8161 -22630 -4512 -44256 -9000 -43937 -9071 -43630 -9177 -8020 -1713 -40405 -8704 17409 -80811 40406 8704 7759 1666 43347 9106 43654 9024 43996 8929 22630 4511zm-402627 -87165l40229 9473 -18945 80456 -40229 -9472 -4193 -969 -41350 -9826 -40996 -9922 -40642 -10027 -34122 -8563 -40063 -10146 20291 -80126 40064 10146 33767 8468 40335 9933 40665 9851 40996 9756 4193 968zm-398209 -102685l39709 11468 -22937 79418 -39709 -11469 -37382 -10689 -37393 -10913 -37028 -10996 -36650 -11126 -10948 -3390 -39449 -12319 24638 -78897 39448 12318 10524 3248 36201 10985 36602 10878 36992 10795 37382 10689zm-391488 -123685l38882 14031 -28063 77764 -38882 -14031 -30815 -10996 -33059 -12071 -32634 -12154 -32221 -12260 -27307 -10641 -38456 -15142 30283 -76914 38457 15142 26716 10406 31654 12047 32114 11965 32516 11858 30815 10996zm-379146 -153792l37335 17729 -35457 74669 -37335 -17728 -12874 -6024 -27862 -13394 -27413 -13511 -26953 -13630 -26492 -13737 -26044 -13878 -2362 -1299 -36142 -20043 40087 -72284 36142 20044 1559 850 25216 13429 25713 13335 26197 13252 26681 13157 27130 13040 12874 6023zm-352264 -200256l33461 24260 -48520 66922 -33461 -24260 -16417 -11717 -20728 -15272 -20209 -15401 -19701 -15543 -19193 -15685 -18673 -15815 -17965 -15792 -30779 -27579 55157 -61559 30780 27579 16807 14752 17539 14870 18083 14764 18614 14693 19122 14575 19666 14492 16417 11716z"/>
 </g>
</svg>
