<?xml version="1.0" encoding="UTF-8"?>
<!DOCTYPE svg PUBLIC "-//W3C//DTD SVG 1.1//EN" "http://www.w3.org/Graphics/SVG/1.1/DTD/svg11.dtd">
<!-- Creator: CorelDRAW X7 -->
<svg xmlns="http://www.w3.org/2000/svg" xml:space="preserve" width="1285px" height="523px" version="1.1" style="shape-rendering:geometricPrecision; text-rendering:geometricPrecision; image-rendering:optimizeQuality; fill-rule:evenodd; clip-rule:evenodd"
viewBox="0 0 12850000 5229995"
 xmlns:xlink="http://www.w3.org/1999/xlink">
 <defs>
  <style type="text/css">
   <![CDATA[
    .fil0 {fill:black;fill-rule:nonzero}
   ]]>
  </style>
 </defs>
 <g id="Слой_x0020_1">
  <metadata id="CorelCorpID_0Corel-Layer"/>
  <path class="fil0" d="M3602 44846l-2161 -41279 82559 -4323 2161 41280 1347 25370 1417 25299 1453 25240 1512 25181 1559 25087 1630 25027 886 13276 2716 41244 -82488 5433 -2717 -41244 -885 -13275 -1630 -25217 -1583 -25299 -1512 -25347 -1476 -25405 -1418 -25488 -1370 -25560zm12844945 4916838l-569162 269079 898 -1972 886 -1973 874 -1972 874 -1973 862 -1972 851 -1961 850 -1972 839 -1973 838 -1972 815 -1961 827 -1972 803 -1973 803 -1960 792 -1973 791 -1972 779 -1961 780 -1972 756 -1961 756 -1972 756 -1961 744 -1972 732 -1961 720 -1972 721 -1961 720 -1961 697 -1972 697 -1961 685 -1960 685 -1961 673 -1972 674 -1961 649 -1961 650 -1960 649 -1961 638 -1972 626 -1961 626 -1961 603 -1960 614 -1961 590 -1961 591 -1960 590 -1961 579 -1961 567 -1960 555 -1961 555 -1949 544 -1960 543 -1961 520 -1960 531 -1961 508 -1949 508 -1961 508 -1960 484 -1961 484 -1949 485 -1960 460 -1949 473 -1961 448 -1960 449 -1949 437 -1961 437 -1949 425 -1960 414 -1949 401 -1961 414 -1949 390 -1948 389 -1961 378 -1949 366 -1949 367 -1960 354 -1949 354 -1949 331 -1949 342 -1949 319 -1960 319 -1949 319 -1949 295 -1949 296 -1948 295 -1949 272 -1949 271 -1949 272 -1949 260 -1949 248 -1948 236 -1949 236 -1949 236 -1949 213 -1937 213 -1949 212 -1948 189 -1949 189 -1949 189 -1937 177 -1949 166 -1949 153 -1937 154 -1949 142 -1937 141 -1948 130 -1949 118 -1937 118 -1949 107 -1937 94 -1949 95 -1937 82 -1937 83 -1949 59 -1937 71 -1937 47 -1949 47 -1937 36 -1937 35 -1948 24 -1937 12 -1937 12 -1937 0 -1937 -12 -1937 -12 -1949 -24 -1937 -23 -1937 -36 -1937 -47 -1937 -47 -1937 -71 -1937 -59 -1937 -83 -1937 -83 -1937 -82 -1926 -95 -1937 -106 -1937 -118 -1937 -118 -1937 -130 -1925 -130 -1937 -142 -1937 -153 -1925 -166 -1937 -165 -1937 -165 -1925 -189 -1937 -189 -1937 -189 -1925 -201 -1937 -213 -1926 -224 -1937 -225 -1925 -236 -1925 -236 -1937 -248 -1925 -260 -1937 -260 -1925 -271 -1926 -284 -1925 -283 -1937 -296 -1925 -307 -1925 -307 -1925 -319 -1937 -319 -1926 -330 -1925 -343 -1925 -342 -1925 -355 -1925 -366 -1926 -366 -1925 -378 -1925 -390 -1925 -389 -1925 -402 -1926 -413 -1925 -414 -1925 -425 -1913 -425 -1926 -437 -1925 -449 -1925 -449 -1913 -460 -1926 -473 -1925 -472 -1925 -484 -1913 -497 -1926 -496 -1913 -508 -1925 -507 -1925 -520 -1914 -532 -1925 -531 -1913 -543 -1914 -555 -1925 -556 -1913 -567 -1926 -578 -1913 -579 -1913 -591 -1925 -602 -1914 -602 -1913 -614 -1925 -615 -1914 -626 -1913 -637 -1914 -638 -1913 -650 -1913 -661 -1926 -662 -1913 -673 -1913 -685 -1914 -685 -1913 -697 -1914 -697 -1913 -708 -1913 -721 -1914 -732 -1901 -732 -1914 -733 -1913 -756 -1913 -755 -1914 -756 -1913 -780 -1902 -779 -1913 -780 -1914 -791 -1901 -803 -1914 -815 -1913 -815 -1901 -815 -1914 -839 -1901 -838 -1914 -839 -1913 -862 -1902 -862 -1901 -863 -1914 -874 -1901 -886 -1914 -897 -1901 -898 -1902 -909 -1913 -910 -1902 -921 -1901 -933 -1914 -933 -1901 -945 -1902 -957 -1902 -956 -1901 -969 -1913 -980 -1902 -981 -1902 -992 -1901 -992 -1902 -1004 -1901 -1015 -1902 -1016 -1902 -1028 -1901 -1039 -1902 587374 226583zm-626268 -18543l41303 -1465 2929 82607 -41303 1464 -5386 189 -56043 1984 -55890 1973 -47929 1677 -41303 1441 -2882 -82606 41303 -1441 47906 -1678 55866 -1972 56043 -1984 5386 -189zm-412996 14315l41315 -1382 2764 82630 -41315 1382 -36225 1216 -54791 1831 -54650 1807 -19594 650 -41315 1358 -2717 -82630 41315 -1358 19595 -650 54626 -1807 54767 -1831 36225 -1216zm-413032 13523l41315 -1311 2622 82630 -41315 1311 -3331 95 -53716 1689 -53528 1665 -53409 1654 -1323 47 -41315 1252 -2504 -82630 41315 -1252 1299 -47 53362 -1654 53528 -1665 53669 -1689 3331 -95zm-413020 12556l41315 -1193 2386 82630 -41315 1193 -15390 448 -52464 1512 -52311 1488 -45130 1276 -41315 1157 -2315 -82630 41315 -1157 45106 -1276 52287 -1488 52441 -1512 15390 -448zm-413055 11444l41315 -1074 2149 82630 -41315 1074 -17551 449 -51248 1323 -51094 1299 -45426 1146 -41315 1028 -2055 -82630 41315 -1028 45402 -1146 51047 -1299 51225 -1323 17551 -449zm-413056 10099l41327 -933 1866 82653 -41326 933 -9934 225 -50031 1122 -49890 1098 -49724 1063 -5788 130 -41327 862 -1724 -82653 41327 -862 5740 -130 49701 -1063 49842 -1099 50008 -1122 9933 -224zm-413055 8598l41327 -756 1512 82654 -41327 756 -41433 756 -48685 886 -48544 838 -26704 461 -41327 697 -1394 -82654 41327 -697 26681 -460 48496 -839 48638 -886 41433 -756zm-413103 6803l41327 -578 1158 82653 -41327 579 -13299 177 -47504 650 -47351 614 -47197 591 -10074 129 -41327 473 -945 -82654 41327 -472 10004 -130 47149 -591 47303 -614 47457 -649 13299 -178zm-413055 4725l41327 -343 685 82654 -41327 342 -21980 189 -46181 367 -46028 342 -45886 307 -5362 36 -41327 236 -472 -82654 41327 -236 5291 -35 45838 -307 45981 -343 46134 -366 21980 -189zm-413067 2338l41327 -82 165 82653 -41327 83 -18768 47 -44870 71 -44728 47 -44587 24 -12496 -24 -41327 -35 71 -82654 41327 36 12425 0 44540 0 44657 -47 44823 -71 18768 -48zm-413044 -448l41327 200 -401 82654 -41327 -201 -3839 -12 -43583 -224 -43441 -272 -43287 -295 -31311 -248 -41327 -342 685 -82654 41327 342 31217 248 43240 296 43370 271 43512 225 3838 12zm-412949 -3662l41327 555 -1110 82654 -41327 -555 -19606 -248 -42178 -591 -42011 -626 -41882 -673 -19807 -331 -41327 -720 1441 -82654 41327 721 19712 330 41811 674 41941 626 42083 590 19606 248zm-412843 -7382l41327 969 -1937 82653 -41327 -968 -21295 -484 -40748 -981 -40642 -1015 -40488 -1052 -22287 -614 -41315 -1145 2291 -82630 41315 1145 22193 614 40394 1052 40547 1015 40677 957 21295 484zm-412701 -11681l41304 1429 -2859 82607 -41303 -1429 -9118 -308 -39390 -1381 -39248 -1418 -39106 -1464 -38551 -1489 -41304 -1618 3237 -82606 41303 1618 38457 1488 39011 1465 39154 1417 39295 1382 9118 307zm-412429 -16748l41280 1984 -3969 82560 -41279 -1985 -21331 -1004 -37890 -1854 -37748 -1890 -37630 -1925 -30744 -1642 -41268 -2208 4417 -82536 41268 2209 30626 1618 37512 1925 37654 1890 37771 1854 21331 1004zm-412063 -22618l41244 2622 -5244 82488 -41244 -2622 -17398 -1086 -36413 -2339 -36296 -2386 -36153 -2445 -36012 -2480 -3012 -213 -41232 -2929 5858 -82464 41232 2929 2894 212 35894 2481 36035 2421 36154 2386 36295 2338 17398 1087zm-411473 -29516l41197 3414 -6827 82393 -41197 -3413 -32634 -2669 -34818 -2918 -34713 -2952 -34571 -3012 -28276 -2504 -41173 -3685 7370 -82347 41173 3685 28134 2504 34430 2989 34570 2952 34701 2894 32634 2669zm-410729 -37618l41115 4288 -8575 82228 -41114 -4287 -29587 -3060 -33283 -3507 -33154 -3567 -33024 -3615 -32893 -3649 -2847 -331 -41067 -4701 9402 -82134 41067 4701 2681 307 32728 3650 32859 3591 32988 3543 33118 3484 29586 3059zm-409582 -47209l40996 5292 -10583 81992 -40996 -5291 -8917 -1134 -31760 -4134 -31618 -4193 -31500 -4240 -31382 -4299 -29138 -4063 -40937 -5741 11480 -81874 40937 5741 28973 4039 31193 4276 31311 4216 31452 4169 31571 4111 8918 1133zm-407894 -58559l40819 6520 -13040 81638 -40819 -6520 -1559 -248 -30118 -4854 -30012 -4902 -29882 -4972 -29752 -5020 -29634 -5079 -12744 -2220 -40712 -7146 14291 -81425 40713 7146 12531 2197 29421 5031 29540 4996 29669 4925 29799 4878 29930 4807 1559 248zm-405414 -72118l40547 8020 -16039 81094 -40547 -8019 -3721 -733 -28417 -5657 -28288 -5728 -28181 -5776 -28039 -5846 -27921 -5906 -18071 -3874 -40406 -8728 17457 -80811 40405 8728 17811 3827 27709 5858 27803 5799 27945 5729 28051 5681 28182 5610 3720 732zm-401823 -88346l40146 9850 -19701 80291 -40146 -9850 -11776 -2870 -26622 -6579 -26504 -6649 -26374 -6709 -26255 -6768 -26138 -6827 -17351 -4606 -39933 -10653 21307 -79867 39933 10654 17067 4535 25878 6756 25996 6697 26115 6638 26220 6579 26362 6508 11776 2870zm-396579 -107752l39531 12082 -24165 79063 -39531 -12082 -22489 -6815 -24744 -7618 -24614 -7678 -24520 -7748 -24389 -7807 -24284 -7866 -13547 -4464 -39236 -12993 25984 -78472 39236 12992 13217 4347 23976 7771 24106 7713 24213 7653 24331 7583 24437 7524 22488 6815zm-389138 -131044l38669 14587 -29173 77339 -38669 -14587 -10477 -3921 -22925 -8693 -22795 -8776 -22689 -8835 -22583 -8893 -22476 -8988 -21390 -8658 -9768 -4016 -38209 -15756 31512 -76417 38209 15756 9437 3874 21059 8516 22122 8846 22252 8776 22358 8716 22465 8634 22594 8575 10477 3921zm-378024 -158563l37394 17610 -35221 74788 -37393 -17610 -9910 -4642 -20067 -9508 -19961 -9579 -19854 -9638 -19772 -9720 -19665 -9768 -19571 -9838 -19453 -9910 -1618 -827 -36697 -19015 38032 -73394 36697 19016 1240 638 19122 9720 19217 9673 19311 9603 19417 9531 19524 9473 19606 9413 19713 9342 9909 4642zm-362528 -190193l35622 20965 -41929 71244 -35622 -20965 -4937 -2893 -18189 -10772 -18094 -10831 -18012 -10901 -17882 -10961 -17823 -11032 -17705 -11114 -17610 -11149 -12059 -7737 -34736 -22393 44787 -69473 34736 22394 11705 7500 17256 10937 17350 10878 17445 10795 17552 10748 17633 10689 17741 10618 17834 10559 4937 2894zm-341551 -224728l33260 24543 -49087 66520 -33260 -24544 -1890 -1381 -16299 -12107 -16181 -12153 -16122 -12237 -16004 -12283 -15921 -12366 -15827 -12437 -15732 -12484 -15638 -12556 -2823 -2279 -32020 -26150 52300 -64039 32019 26149 2445 1997 15284 12271 15401 12225 15473 12153 15567 12083 15649 12023 15744 11953 15851 11894 15921 11823 1890 1382zm-314422 -260540l30213 28205 -56409 60425 -30213 -28205 -2941 -2728 -14362 -13488 -14280 -13547 -14208 -13630 -14103 -13701 -14008 -13760 -13925 -13819 -13842 -13890 -13760 -13972 -4311 -4429 -28760 -29693 59386 -57520 28760 29693 4003 4122 13406 13618 13512 13559 13594 13512 13701 13429 13772 13370 13854 13300 13949 13240 14031 13181 2941 2728zm-281480 -295346l26527 31700 -63401 53055 -26528 -31700 -10275 -12213 -12449 -14953 -12354 -15023 -12284 -15083 -12189 -15154 -12106 -15224 -12024 -15283 -11929 -15355 -9177 -11929 -25099 -32846 65693 -50197 25099 32846 8870 11551 11669 15000 11740 14929 11823 14871 11906 14799 11976 14728 12071 14669 12165 14599 10276 12213zm-244595 -326965l22713 34535 -69071 45425 -22713 -34535 -3708 -5610 -10689 -16347 -10618 -16405 -10524 -16477 -10453 -16547 -10370 -16630 -10275 -16677 -10205 -16736 -10134 -16807 -2032 -3402 -21047 -35575 71150 -42094 21047 35575 1795 3023 9898 16429 9992 16382 10063 16323 10134 16228 10217 16170 10287 16098 10382 16051 10453 15992 3708 5611zm-205866 -352997l18839 36792 -73583 37677 -18839 -36791 -1051 -2044 -9024 -17728 -8952 -17799 -8870 -17882 -8788 -17917 -8716 -18000 -8646 -18071 -8563 -18118 -8492 -18201 -2079 -4512 -17197 -37583 75166 -34394 17197 37583 1913 4134 8327 17823 8397 17787 8457 17693 8551 17622 8622 17587 8681 17504 8764 17421 8835 17374 1051 2043zm-168142 -372886l15083 38481 -76961 30165 -15083 -38480 -3129 -7925 -7441 -19122 -7370 -19170 -7311 -19264 -7229 -19311 -7169 -19382 -7075 -19464 -7016 -19500 -4641 -13063 -13737 -38988 77977 -27473 13736 38988 4524 12733 6897 19193 6957 19110 7028 19027 7110 18981 7169 18909 7252 18862 7299 18768 3130 7925zm-133547 -387319l11775 39626 -79252 23551 -11775 -39626 -2658 -8893 -6023 -20445 -5965 -20504 -5894 -20575 -5822 -20622 -5764 -20705 -5693 -20775 -5622 -20823 -1866 -6992 -10536 -39969 79937 -21071 10536 39969 1771 6661 5552 20540 5598 20468 5669 20374 5752 20339 5800 20268 5870 20173 5952 20138 2658 8893zm-103016 -397169l8941 40358 -80717 17882 -8941 -40358 -1252 -5658 -4759 -21709 -4701 -21755 -4630 -21815 -4583 -21898 -4500 -21957 -4441 -22016 -4393 -22098 -792 -4039 -7830 -40583 81165 -15661 7831 40582 744 3756 4323 21815 4393 21756 4453 21673 4512 21614 4583 21556 4629 21496 4713 21401 1252 5658zm-76724 -403477l6425 40831 -81662 12850 -6425 -40830 -3272 -20646 -3578 -22961 -3508 -23020 -3449 -23078 -3390 -23138 -3342 -23221 -3272 -23291 -697 -5020 -5575 -40960 81922 -11150 5575 40961 649 4783 3248 23032 3295 22984 3367 22925 3401 22843 3484 22760 3532 22700 3272 20646zm-54508 -407669l4452 41090 -82181 8906 -4452 -41091 -898 -8244 -2575 -24095 -2516 -24141 -2456 -24237 -2398 -24271 -2350 -24343 -2292 -24425 -1039 -11492 -3709 -41161 82323 -7418 3709 41162 1039 11303 2268 24212 2327 24130 2374 24083 2433 24000 2492 23929 2551 23858 898 8245z"/>
 </g>
</svg>
