<?xml version="1.0" encoding="UTF-8"?>
<!DOCTYPE svg PUBLIC "-//W3C//DTD SVG 1.1//EN" "http://www.w3.org/Graphics/SVG/1.1/DTD/svg11.dtd">
<!-- Creator: CorelDRAW X7 -->
<svg xmlns="http://www.w3.org/2000/svg" xml:space="preserve" width="241px" height="717px" version="1.1" style="shape-rendering:geometricPrecision; text-rendering:geometricPrecision; image-rendering:optimizeQuality; fill-rule:evenodd; clip-rule:evenodd"
viewBox="0 0 2410000 7170023"
 xmlns:xlink="http://www.w3.org/1999/xlink">
 <defs>
  <style type="text/css">
   <![CDATA[
    .fil0 {fill:black;fill-rule:nonzero}
   ]]>
  </style>
 </defs>
 <g id="Слой_x0020_1">
  <metadata id="CorelCorpID_0Corel-Layer"/>
  <path class="fil0" d="M2322740 38906l4063 -41138 82276 8126 -4063 41138 -1500 15283 -1488 15260 -1453 15213 -1453 15177 -1429 15130 -1394 15094 -1394 15071 -1370 15024 -1346 15000 -1335 14941 -1145 13004 -3650 41173 -82347 -7299 3650 -41173 1146 -13004 1334 -15036 1370 -15071 1370 -15094 1394 -15142 1417 -15189 1430 -15224 1452 -15272 1477 -15284 1488 -15330 1500 -15378zm-2068743 7133362l-253064 -576357 1937 945 1949 933 1949 933 1949 933 1937 910 1948 909 1949 910 1937 886 1949 897 1949 874 1937 874 1949 862 1949 863 1937 838 1948 851 1949 826 1937 827 1949 827 1949 803 1937 803 1949 803 1937 792 1949 779 1948 768 1937 768 1949 756 1937 756 1949 744 1949 732 1937 732 1949 721 1937 708 1949 709 1937 697 1948 697 1937 673 1949 685 1937 661 1949 662 1937 649 1949 650 1949 638 1937 626 1949 626 1937 614 1937 602 1948 603 1937 590 1949 591 1937 567 1949 579 1937 555 1949 555 1937 543 1937 543 1949 532 1937 520 1949 519 1937 508 1949 508 1937 484 1937 496 1948 473 1937 472 1937 461 1949 460 1937 449 1937 437 1949 437 1937 426 1949 413 1937 413 1937 402 1949 390 1937 389 1937 378 1937 378 1949 366 1937 355 1937 354 1948 343 1937 330 1938 331 1937 319 1948 307 1937 307 1937 295 1937 296 1949 283 1937 272 1937 260 1937 259 1937 260 1949 237 1937 236 1937 236 1937 213 1937 212 1949 213 1937 201 1937 189 1937 177 1937 177 1937 165 1949 166 1937 153 1937 142 461 35 59 -30012 82653 166 -59 28925 178 -12 1937 -189 1937 -189 1937 -200 1937 -213 1925 -213 1937 -236 1937 -224 1937 -248 1937 -248 1937 -248 1937 -260 1925 -272 1937 -283 1937 -284 1937 -295 1937 -295 1925 -319 1937 -307 1937 -331 1937 -331 1926 -331 1937 -354 1937 -354 1937 -355 1925 -377 1937 -367 1937 -389 1937 -390 1925 -402 1937 -401 1937 -414 1925 -425 1937 -437 1937 -437 1937 -437 1926 -461 1937 -448 1937 -473 1925 -472 1937 -485 1937 -496 1925 -496 1937 -496 1937 -519 1925 -520 1937 -532 1925 -531 1937 -543 1937 -555 1926 -556 1937 -567 1925 -566 1937 -579 1937 -591 1925 -602 1937 -602 1925 -615 1937 -614 1926 -626 1937 -638 1937 -637 1925 -650 1937 -650 1925 -673 1937 -673 1925 -673 1937 -685 1925 -697 1937 -697 1926 -709 1937 -720 1925 -733 1937 -732 1925 -732 1937 -744 1925 -756 1926 -768 1937 -768 1925 -779 1937 -780 1925 -803 1937 -791 1925 -815 1925 -815 1937 -815 1926 -839 1937 -838 1925 -839 1925 -862 1937 -850 1925 -874 1925 -874 1937 -886 1926 -886 1937 -898 1925 -909 1925 -921 1937 -922 1925 -921 1925 -945 1938 -933 1925 -957 1925 -956 1925 -969 1937 -980 1925 -980 -242835 580750zm39319 -753877l-567 41327 -82654 -1134 567 -41327 378 -30945 697 -46594 791 -46087 839 -41989 874 -41326 82654 1748 -874 41327 -839 41775 -791 45874 -697 46406 -378 30945zm9697 -412230l-1536 41304 -82606 -3071 1535 -41304 626 -17574 1618 -41989 1737 -41504 1807 -41020 1134 -23586 2019 -41280 82560 4039 -2020 41280 -1110 23351 -1807 40760 -1713 41267 -1618 41752 -626 17575zm21059 -411497l-2811 41232 -82465 -5622 2811 -41232 95 -1583 2586 -37169 2681 -36733 2788 -36271 2870 -35800 1512 -18023 3531 -41186 82370 7063 -3531 41186 -1488 17716 -2847 35516 -2763 35965 -2658 36449 -2587 36909 -94 1583zm36449 -409832l-4654 41067 -82134 -9307 4654 -41067 484 -4441 3673 -31843 3768 -31429 3850 -30992 3933 -30579 4016 -30154 792 -5704 5728 -40938 81874 11457 -5728 40937 -744 5327 -3969 29799 -3886 30225 -3803 30638 -3720 31075 -3650 31488 -484 4441zm58559 -406301l-7370 40666 -81331 -14740 7370 -40666 189 -1063 4819 -26197 4902 -25819 4984 -25453 5055 -25063 5126 -24685 5197 -24342 2457 -11138 9011 -40335 80670 18024 -9012 40334 -2338 10642 -5103 23847 -5031 24236 -4961 24591 -4890 24980 -4807 25370 -4748 25748 -189 1063zm93012 -397595l-12023 39543 -79087 -24047 12023 -39544 3107 -10370 6130 -19878 6189 -19559 6271 -19240 6331 -18922 6390 -18602 6460 -18283 6520 -18001 6106 -16405 14587 -38670 77339 29174 -14587 38669 -5846 15721 -6284 17338 -6224 17646 -6177 17965 -6118 18283 -6059 18603 -6001 18945 -5940 19263 -3107 10371zm152233 -373809l-20209 36059 -72118 -40417 20209 -36059 956 -1736 7559 -13276 7583 -13039 7666 -12804 7712 -12555 7760 -12295 7807 -12071 7866 -11847 7937 -11622 7973 -11350 8008 -11138 8078 -10949 6591 -8669 25181 -32776 65552 50363 -25182 32775 -5976 7866 -7441 10075 -7417 10311 -7382 10548 -7347 10748 -7299 10996 -7287 11244 -7241 11492 -7216 11729 -7146 11952 -7134 12237 -7086 12472 -957 1736zm253820 -299115l-33520 24177 -48355 -67039 33520 -24177 6591 -4819 8964 -6378 9000 -6248 9048 -6107 9035 -5929 9071 -5799 9071 -5646 9106 -5527 9130 -5398 9142 -5244 9130 -5126 9142 -4996 9189 -4902 9189 -4760 9189 -4641 9212 -4548 4949 -2386 37323 -17752 35504 74646 -37323 17752 -4264 2056 -8456 4169 -8457 4287 -8409 4359 -8363 4452 -8386 4595 -8374 4677 -8315 4795 -8279 4878 -8280 5032 -8267 5149 -8221 5256 -8209 5386 -8149 5492 -8150 5658 -8138 5787 -6590 4819zm361879 -165237l-39496 12178 -24355 -78993 39496 -12177 5174 -1595 9035 -2775 9024 -2776 9012 -2752 8988 -2752 8964 -2728 8930 -2740 8929 -2752 8929 -2752 8882 -2740 8823 -2752 8858 -2788 8799 -2787 8800 -2823 8752 -2823 8716 -2870 8728 -2894 8670 -2917 413 -153 39083 -13465 26929 78166 -39083 13464 -791 272 -9024 3035 -9011 2988 -9024 2965 -9036 2917 -9011 2894 -9036 2858 -9000 2835 -9035 2823 -9024 2787 -8976 2776 -9000 2752 -9000 2764 -8989 2752 -8988 2752 -8965 2728 -8952 2752 -8965 2752 -5173 1594zm393001 -156780l-34807 22288 -44575 -69615 34807 -22287 5398 -3402 7712 -5019 7713 -5150 7677 -5280 7618 -5374 7571 -5515 7559 -5646 7512 -5787 7477 -5930 7441 -6070 7405 -6225 7358 -6354 7335 -6520 7311 -6673 7240 -6815 7217 -7016 4311 -4299 29032 -29422 58842 58064 -29031 29421 -5185 5173 -8067 7819 -8138 7666 -8162 7476 -8208 7299 -8256 7134 -8303 6957 -8339 6803 -8374 6638 -8433 6496 -8457 6331 -8492 6177 -8539 6035 -8552 5870 -8586 5740 -8634 5611 -5398 3401zm289548 -317186l-19582 36402 -72804 -39166 19583 -36401 4854 -8870 6237 -11788 6200 -12023 6142 -12284 4276 -8705 4216 -8704 4181 -8729 4134 -8716 4087 -8741 4075 -8787 4027 -8787 3969 -8776 3945 -8823 3909 -8823 3862 -8811 1890 -4335 16311 -37972 75945 32622 -16311 37973 -2031 4689 -4004 9165 -4051 9130 -4087 9130 -4134 9106 -4169 9095 -4193 9071 -4252 9094 -4299 9071 -4347 9059 -4382 9036 -4417 9011 -6567 13158 -6650 12898 -6708 12661 -4855 8870zm161091 -388407l-12460 39414 -78827 -24921 12460 -39414 685 -2149 2906 -9249 2882 -9283 2846 -9307 2811 -9284 2776 -9319 2752 -9354 2728 -9366 2681 -9366 2658 -9402 2634 -9413 2586 -9414 2563 -9460 2552 -9485 2504 -9472 2468 -9508 2469 -9555 1074 -4240 10099 -40087 80173 20197 -10098 40087 -1169 4547 -2516 9768 -2540 9767 -2598 9780 -2598 9720 -2634 9721 -2681 9720 -2705 9697 -2729 9662 -2775 9673 -2799 9626 -2823 9614 -2870 9626 -2906 9614 -2941 9567 -2953 9544 -3000 9555 -685 2149zm98493 -406607l-7276 40689 -81378 -14551 7276 -40689 130 -733 1783 -10039 1760 -10075 1748 -10134 1713 -10086 1677 -10134 1689 -10205 1653 -10169 1618 -10182 1607 -10240 1594 -10264 1571 -10275 1547 -10299 1536 -10335 1512 -10323 1476 -10358 1122 -7890 5740 -40937 81874 11480 -5740 40937 -1145 8055 -1524 10548 -1536 10535 -1559 10500 -1570 10465 -1595 10464 -1618 10430 -1630 10405 -1665 10441 -1701 10382 -1689 10323 -1725 10346 -1759 10347 -1772 10275 -1783 10288 -1831 10276 -130 732zm55665 -412750l-4051 41138 -82276 -8102 4052 -41138 342 -3484 1075 -10984 1075 -11008 1039 -11020 1051 -11067 1016 -11055 1016 -11114 1004 -11138 992 -11138 980 -11162 957 -11208 957 -11244 956 -11256 921 -11268 922 -11327 366 -4453 3307 -41197 82394 6615 -3307 41197 -366 4523 -922 11374 -944 11410 -957 11350 -957 11315 -980 11303 -980 11280 -993 11279 -1027 11233 -1016 11185 -1039 11197 -1051 11161 -1063 11138 -1075 11102 -1075 11079 -343 3484zm32386 -413505l-2586 41256 -82512 -5173 2586 -41256 284 -4654 744 -11952 744 -11989 744 -12000 732 -12035 733 -12059 720 -12107 732 -12106 697 -12154 732 -12212 709 -12201 709 -12224 708 -12272 709 -12295 154 -2540 2350 -41268 82536 4701 -2351 41268 -153 2539 -709 12343 -708 12295 -709 12272 -732 12248 -709 12189 -721 12201 -732 12153 -720 12130 -733 12107 -732 12082 -744 12048 -744 12012 -744 12000 -284 4653zm23646 -412962l-2279 41268 -82536 -4559 2279 -41268 130 -2362 709 -12957 732 -12992 721 -12980 720 -13052 732 -13110 745 -13098 732 -13122 744 -13205 756 -13217 756 -13216 756 -13276 767 -13299 307 -5303 2398 -41268 82536 4795 -2398 41268 -307 5256 -768 13275 -756 13252 -755 13241 -756 13193 -744 13134 -733 13145 -744 13099 -732 13039 -721 13028 -720 13027 -732 12969 -709 12933 -130 2362zm24520 -412135l-2740 41244 -82489 -5480 2740 -41244 390 -6048 933 -13960 933 -14020 969 -14067 957 -14079 980 -14126 980 -14138 992 -14220 1016 -14221 1028 -14267 1039 -14304 1039 -14326 260 -3485 3071 -41220 82441 6141 -3071 41221 -259 3390 -1040 14279 -1039 14256 -1004 14197 -1016 14173 -992 14127 -980 14114 -981 14079 -956 14031 -945 13996 -933 13973 -933 13937 -390 6047z"/>
 </g>
</svg>
