<?xml version="1.0" encoding="UTF-8"?>
<!DOCTYPE svg PUBLIC "-//W3C//DTD SVG 1.1//EN" "http://www.w3.org/Graphics/SVG/1.1/DTD/svg11.dtd">
<!-- Creator: CorelDRAW X7 -->
<svg xmlns="http://www.w3.org/2000/svg" xml:space="preserve" width="970px" height="351px" version="1.1" style="shape-rendering:geometricPrecision; text-rendering:geometricPrecision; image-rendering:optimizeQuality; fill-rule:evenodd; clip-rule:evenodd"
viewBox="0 0 9700000 3510003"
 xmlns:xlink="http://www.w3.org/1999/xlink">
 <defs>
  <style type="text/css">
   <![CDATA[
    .fil0 {fill:black;fill-rule:nonzero}
   ]]>
  </style>
 </defs>
 <g id="Слой_x0020_1">
  <metadata id="CorelCorpID_0Corel-Layer"/>
  <path class="fil0" d="M89658 3471428l-6060 40890 -81779 -12118 6059 -40890 1831 -12047 1889 -11965 1961 -11870 2020 -11858 2102 -11764 2150 -11705 2232 -11634 2291 -11563 2363 -11492 2421 -11421 2492 -11398 2575 -11315 2622 -11220 2693 -11173 874 -3520 9827 -40146 80291 19654 -9827 40145 -874 3520 -2551 10606 -2504 10701 -2433 10748 -2374 10807 -2303 10902 -2268 10972 -2173 11020 -2138 11091 -2055 11161 -2008 11244 -1925 11292 -1866 11397 -1819 11445 -1736 11504zm9338700 -3473743l269835 568808 -1973 -898 -1972 -874 -1972 -886 -1973 -862 -1972 -862 -1973 -851 -1972 -850 -1973 -839 -1972 -826 -1961 -815 -1972 -827 -1973 -803 -1972 -803 -1961 -792 -1972 -779 -1973 -780 -1960 -768 -1973 -767 -1972 -744 -1961 -756 -1972 -733 -1961 -732 -1972 -720 -1961 -721 -1972 -708 -1961 -709 -1961 -685 -1972 -685 -1961 -685 -1960 -674 -1973 -661 -1960 -650 -1961 -649 -1972 -650 -1961 -626 -1961 -626 -1960 -626 -1961 -602 -1961 -602 -1960 -603 -1961 -590 -1960 -579 -1961 -567 -1961 -567 -1960 -555 -1961 -555 -1961 -543 -1960 -532 -1961 -531 -1961 -520 -1960 -508 -1949 -508 -1961 -496 -1960 -496 -1961 -472 -1949 -485 -1960 -460 -1961 -461 -1949 -449 -1960 -449 -1949 -437 -1961 -425 -1949 -425 -1960 -413 -1949 -402 -1961 -402 -1949 -389 -1960 -390 -1949 -378 -1949 -366 -1960 -355 -1949 -354 -1949 -354 -1961 -331 -1949 -331 -1948 -330 -1949 -307 -1949 -319 -1949 -296 -1949 -295 -1960 -283 -1949 -284 -1949 -260 -1949 -271 -1949 -248 -1948 -248 -1949 -248 -1937 -225 -1949 -224 -1949 -225 -1949 -212 -1949 -201 -1948 -189 -1937 -189 -1949 -177 -1949 -177 -1949 -166 -1937 -153 -1949 -154 -1937 -141 -1948 -130 -1949 -130 -1937 -118 -1949 -107 -1937 -106 -1949 -94 -1937 -95 -1937 -83 -1949 -71 -1937 -70 -1949 -59 -1937 -48 -1937 -47 -1937 -35 -1948 -24 -1937 -24 -1937 -11 -1937 0 -1937 0 -1949 11 -1937 12 -1937 24 -520 12 -6709 26137 -1417 5575 -1677 6473 -1748 6555 -1795 6520 -1819 6519 -1890 6532 -1914 6531 -1972 6567 -2031 6603 -2079 6578 -2114 6555 -2150 6591 -2220 6614 -2268 6614 -2315 6650 -2374 6638 -2398 6590 -2445 6638 -2527 6685 -2563 6638 -2599 6661 -2657 6662 -2705 6661 -2764 6697 -2137 5079 -16134 38055 -76111 -32268 16134 -38055 1949 -4630 2551 -6177 2516 -6213 2468 -6189 2434 -6189 2374 -6189 2315 -6141 2279 -6166 2256 -6189 2185 -6141 2150 -6107 2078 -6118 2055 -6118 2008 -6118 1973 -6130 1913 -6083 1866 -6035 1807 -6047 1796 -6083 1724 -6035 1701 -6048 1653 -6023 1583 -5941 1559 -6024 508 -1984 -614 118 -1925 378 -1926 390 -1925 389 -1925 402 -1913 413 -1925 426 -1926 425 -1925 425 -1925 449 -1913 449 -1926 448 -1925 461 -1913 472 -1925 485 -1914 484 -1925 496 -1925 496 -1914 508 -1925 520 -1913 519 -1925 532 -1914 543 -1913 543 -1925 556 -1914 555 -1913 578 -1925 567 -1914 591 -1913 590 -1914 603 -1925 602 -1913 614 -1913 626 -1914 626 -1913 638 -1914 650 -1913 649 -1913 662 -1914 661 -1913 673 -1914 685 -1913 697 -1913 697 -1914 697 -1913 720 -1914 721 -1913 720 -1901 745 -1914 744 -1913 744 -1914 756 -1901 767 -1914 780 -1913 779 -1902 780 -1913 803 -1902 803 -1913 803 -1902 827 -1913 827 -1901 827 -1914 850 -1901 839 -1914 862 -1901 862 -1902 874 -1913 874 -1902 886 -1902 898 -1901 909 -1913 898 -1902 921 -1902 921 -1901 933 -1902 945 -1901 945 -1914 957 -1901 956 -1902 969 -1901 980 -1902 992 -1902 993 -1901 992 -1890 1015 -1902 1016 -1901 1016 -1902 1039 -1901 1028 225803 -587670zm-221917 881765l23551 -33969 67937 47102 -23551 33969 -3296 4783 -4630 6650 -4712 6638 -4748 6626 -4784 6602 -4854 6603 -4913 6614 -4961 6578 -5008 6579 -5079 6579 -5126 6555 -5197 6555 -5244 6555 -5291 6520 -5350 6520 -5422 6508 -5445 6472 -5527 6508 -5587 6484 -5634 6449 -4086 4630 -27437 30909 -61819 -54874 27437 -30909 3779 -4276 5304 -6094 5255 -6083 5197 -6106 5162 -6142 5090 -6130 5044 -6142 4984 -6141 4937 -6154 4866 -6153 4819 -6178 4772 -6177 4724 -6201 4677 -6200 4606 -6189 4548 -6201 4523 -6225 4465 -6224 4382 -6213 4346 -6224 3296 -4783zm-273131 292464l32138 -25996 51992 64276 -32137 25996 -201 165 -7394 5941 -7453 5918 -7488 5882 -7571 5870 -7641 5846 -7654 5799 -7772 5811 -7819 5776 -7854 5716 -7925 5729 -7996 5693 -8020 5645 -8114 5658 -8221 5646 -8232 5563 -8279 5563 -8351 5515 -3094 2032 -34654 22535 -45071 -69307 34654 -22535 2716 -1772 7973 -5280 7925 -5303 7854 -5326 7748 -5315 7713 -5374 7689 -5410 7594 -5409 7548 -5445 7500 -5481 7417 -5468 7347 -5504 7322 -5539 7241 -5540 7169 -5563 7134 -5598 7074 -5610 6993 -5634 200 -166zm-341457 213249l37359 -17693 35386 74716 -37359 17693 -5350 2551 -10004 4701 -10087 4677 -10122 4618 -10193 4607 -10275 4559 -10311 4523 -10418 4500 -10476 4453 -10524 4406 -10594 4370 -10665 4323 -10701 4299 -10807 4264 -10878 4216 -3555 1358 -38646 14646 -29292 -77291 38646 -14646 3154 -1217 10452 -4051 10359 -4098 10346 -4134 10264 -4181 10193 -4205 10122 -4240 10051 -4264 9969 -4311 9956 -4358 9851 -4370 9791 -4418 9744 -4452 9662 -4488 9602 -4512 5350 -2551zm-380846 138673l39980 -10677 21331 79866 -39933 10665 -12449 3296 -12437 3212 -12484 3154 -12544 3118 -12626 3071 -12673 3023 -12756 2989 -12874 2929 -12898 2870 -12945 2823 -13063 2787 -13098 2716 -10653 2174 -40524 8138 -16276 -81048 40524 -8138 10275 -2102 12745 -2646 12637 -2693 12615 -2752 12519 -2775 12402 -2835 12378 -2893 12319 -2930 12248 -2976 12165 -3024 12083 -3059 12012 -3118 12000 -3165zm-399922 75201l41055 -4784 9567 82111 -41055 4783 -3744 437 -16217 1878 -16311 1854 -16393 1855 -16477 1819 -16559 1830 -16689 1807 -16760 1772 -16819 1772 -16925 1771 -12059 1240 -41126 4182 -8362 -82252 41126 -4182 11917 -1216 16807 -1748 16748 -1772 16642 -1771 16524 -1784 16464 -1807 16359 -1819 16275 -1831 16193 -1854 16075 -1854 3744 -437zm-409996 40984l41185 -3520 7039 82370 -41185 3520 -4311 366 -18224 1548 -18307 1547 -18414 1547 -18461 1512 -18543 1512 -18626 1500 -18697 1500 -18779 1476 -12756 992 -41209 3189 -6378 -82417 41209 -3189 12685 -992 18685 -1477 18626 -1476 18555 -1500 18473 -1512 18389 -1512 18319 -1523 18236 -1548 18178 -1547 4311 -366zm-411402 31441l41232 -2799 5599 82464 -41233 2800 -9791 661 -19819 1346 -19878 1335 -19961 1323 -19996 1311 -20079 1311 -20149 1299 -20197 1288 -15295 992 -41256 2610 -5221 -82512 41256 -2610 15272 -969 20150 -1287 20078 -1299 20032 -1311 19972 -1311 19890 -1323 19831 -1335 19771 -1323 9792 -661zm-412111 25760l41268 -2386 4772 82536 -41268 2385 -4961 284 -21023 1205 -21071 1204 -21130 1193 -21177 1193 -21225 1181 -21283 1193 -21343 1169 -11976 662 -41268 2268 -4535 -82536 41267 -2268 11977 -661 21295 -1169 21260 -1193 21201 -1181 21153 -1193 21083 -1193 21047 -1205 20977 -1205 4960 -283zm-412512 22476l41315 -2149 4299 82559 -41279 2149 -22016 1134 -21992 1134 -22028 1134 -22086 1134 -22122 1122 -22146 1134 -22217 1122 -10571 543 -41279 2079 -4158 -82559 41280 -2079 10547 -543 22193 -1122 22146 -1134 22122 -1122 22039 -1134 22028 -1134 21992 -1134 21933 -1134zm-412654 20811l41280 -2043 4086 82559 -41279 2043 -11091 544 -22677 1122 -22713 1122 -22748 1122 -22783 1122 -22807 1122 -22831 1122 -17492 862 -41280 2032 -4063 -82559 41280 -2032 17492 -862 22831 -1122 22807 -1122 22783 -1122 22725 -1122 22712 -1122 22678 -1122 11090 -544zm-412854 20374l41279 -2067 4134 82560 -41280 2066 -11055 544 -23197 1157 -23208 1158 -23233 1157 -23244 1158 -23267 1169 -23292 1181 -14610 744 -41280 2079 -4157 -82559 41279 -2079 14611 -744 23291 -1181 23291 -1169 23268 -1158 23232 -1157 23209 -1158 23173 -1157 11056 -544zm-412902 20965l41279 -2173 4347 82559 -41280 2173 -18661 969 -23516 1240 -23516 1240 -23527 1252 -23540 1252 -23551 1252 -23563 1264 -5150 283 -41267 2244 -4489 -82535 41268 -2244 5197 -284 23587 -1264 23551 -1275 23563 -1252 23551 -1252 23539 -1240 23516 -1241 18662 -968zm-412902 22524l41267 -2363 4725 82536 -41268 2362 -7016 390 -23645 1358 -23646 1370 -23634 1370 -23634 1382 -23669 1394 -23634 1394 -16063 968 -41256 2469 -4937 -82512 41256 -2469 16087 -968 23681 -1394 23669 -1394 23681 -1405 23681 -1370 23670 -1370 23669 -1359 7016 -389zm-412879 24992l41245 -2670 5338 82489 -41244 2669 -20220 1299 -23599 1536 -23598 1547 -23587 1559 -23598 1559 -23552 1583 -23563 1582 -3094 213 -41232 2823 -5646 -82465 41232 -2823 3142 -212 23610 -1607 23622 -1582 23622 -1559 23611 -1559 23645 -1548 23646 -1535 20220 -1299zm-412736 28441l41220 -3059 6118 82441 -41220 3059 -8126 590 -23409 1748 -23386 1760 -23363 1760 -23338 1783 -23327 1807 -23315 1819 -16394 1300 -41208 3248 -6496 -82418 41208 -3248 16441 -1299 23362 -1819 23398 -1807 23410 -1783 23409 -1784 23433 -1760 23457 -1748 8126 -590zm-412536 33000l41173 -3591 7181 82347 -41173 3590 -14799 1288 -23020 2007 -22972 2032 -22949 2055 -22937 2055 -22890 2079 -22866 2102 -12012 1122 -41161 3815 -7630 -82323 41161 -3815 12059 -1122 22937 -2102 22961 -2079 22984 -2078 23020 -2056 23067 -2031 23067 -2008 14799 -1287zm-412158 38870l41114 -4252 8504 82228 -41114 4252 -13488 1382 -22441 2339 -22382 2338 -22358 2374 -22323 2374 -22264 2422 -22252 2421 -16594 1831 -41079 4547 -9095 -82158 41079 -4547 16689 -1854 22323 -2422 22358 -2421 22418 -2398 22429 -2374 22476 -2362 22512 -2338 13488 -1382zm-411543 46394l41019 -5079 10158 82039 -41020 5079 -1157 142 -21674 2704 -21626 2705 -21567 2729 -21519 2775 -21485 2776 -21413 2811 -21390 2823 -11740 1570 -40961 5493 -10984 -81922 40961 -5492 11835 -1594 21484 -2847 21531 -2811 21579 -2799 21638 -2776 21685 -2752 21720 -2728 21768 -2705 1158 -141zm-410670 56185l40854 -6248 12496 81708 -40854 6248 -9744 1477 -13252 2043 -13217 2043 -13192 2055 -13170 2079 -13110 2079 -13098 2102 -13075 2103 -13028 2137 -13016 2126 -12944 2150 -12922 2161 -8823 1500 -40748 6910 -13819 -81496 40748 -6910 8918 -1523 13063 -2185 13086 -2174 13111 -2149 13145 -2138 13170 -2126 13193 -2126 13252 -2102 13263 -2079 13288 -2079 13334 -2067 13347 -2043 9744 -1476zm-409111 71811l40489 -8292 16582 80977 -40488 8291 -331 59 -12236 2516 -12153 2528 -12130 2551 -12107 2563 -12082 2598 -12012 2599 -12000 2633 -11977 2658 -11917 2657 -11858 2693 -11858 2717 -11823 2740 -11752 2740 -3957 945 -40205 9567 -19134 -80410 40205 -9566 4146 -993 11988 -2811 11988 -2763 12024 -2764 12094 -2740 12107 -2705 12118 -2681 12189 -2681 12224 -2646 12225 -2622 12271 -2610 12319 -2599 12366 -2551 12355 -2539 330 -59zm-404764 100252l39555 -11988 23977 79110 -39555 11988 -7902 2386 -10842 3295 -10819 3354 -10796 3367 -10712 3389 -10689 3414 -10654 3449 -10594 3472 -10571 3520 -10524 3519 -10464 3567 -10441 3591 -10370 3614 -10382 3662 -9331 3330 -38905 13961 -27922 -77811 38906 -13961 9638 -3425 10618 -3756 10700 -3732 10725 -3685 10772 -3662 10807 -3638 10854 -3590 10878 -3567 10937 -3543 10949 -3508 11019 -3484 11032 -3437 11079 -3426 11126 -3389 7901 -2386zm-391937 148807l37264 -17870 35740 74527 -37264 17871 -555 259 -9224 4465 -9166 4476 -9141 4524 -9083 4547 -9012 4595 -8976 4606 -8941 4677 -8894 4701 -8835 4736 -8811 4772 -8716 4795 -8717 4854 -8645 4867 -8575 4913 -8575 4961 -8492 4984 -154 94 -35445 21260 -42519 -70890 35445 -21259 602 -355 8941 -5244 8929 -5173 9024 -5173 9071 -5103 9070 -5067 9166 -5031 9189 -4984 9236 -4949 9272 -4890 9319 -4866 9377 -4843 9437 -4783 9461 -4736 9496 -4713 9544 -4665 9602 -4630 555 -260zm-357437 225768l31547 -26705 53409 63095 -31547 26704 -6118 5138 -7134 6083 -7086 6142 -7040 6177 -6980 6224 -6945 6272 -6886 6319 -6827 6366 -6779 6401 -6732 6449 -6674 6496 -6614 6532 -6579 6602 -6507 6626 -6461 6673 -6402 6721 -6354 6791 -1961 2126 -27945 30461 -60921 -55890 27945 -30461 2362 -2551 6780 -7240 6850 -7193 6910 -7145 6956 -7075 7004 -7028 7063 -6980 7122 -6921 7158 -6874 7228 -6827 7276 -6768 7334 -6720 7371 -6674 7429 -6626 7488 -6578 7535 -6520 7607 -6484 6118 -5138zm-277571 321567l21378 -35374 70748 42756 -21378 35374 -307 508 -4890 8173 -4854 8232 -4784 8268 -4713 8327 -4677 8374 -4606 8445 -4559 8516 -4500 8551 -4453 8610 -4382 8669 -4334 8740 -4276 8788 -4217 8858 -4157 8894 -4098 8964 -4063 9048 -1654 3779 -16465 37914 -75826 -32930 16464 -37913 1937 -4394 4299 -9590 4359 -9555 4441 -9508 4500 -9425 4559 -9378 4618 -9307 4689 -9260 4736 -9201 4807 -9142 4866 -9059 4937 -9035 4985 -8965 5066 -8917 5115 -8835 5161 -8776 5221 -8716 307 -508z"/>
 </g>
</svg>
