<?xml version="1.0" encoding="UTF-8"?>
<!DOCTYPE svg PUBLIC "-//W3C//DTD SVG 1.1//EN" "http://www.w3.org/Graphics/SVG/1.1/DTD/svg11.dtd">
<!-- Creator: CorelDRAW X7 -->
<svg xmlns="http://www.w3.org/2000/svg" xml:space="preserve" width="991px" height="216px" version="1.1" style="shape-rendering:geometricPrecision; text-rendering:geometricPrecision; image-rendering:optimizeQuality; fill-rule:evenodd; clip-rule:evenodd"
viewBox="0 0 9910000 2160002"
 xmlns:xlink="http://www.w3.org/1999/xlink">
 <defs>
  <style type="text/css">
   <![CDATA[
    .fil0 {fill:black;fill-rule:nonzero}
   ]]>
  </style>
 </defs>
 <g id="Слой_x0020_1">
  <metadata id="CorelCorpID_0Corel-Layer"/>
  <path class="fil0" d="M86610 2114825l-6460 40818 -81638 -12921 6460 -40819 2563 -15945 2646 -15874 2728 -15838 2823 -15768 2882 -15697 2977 -15673 3070 -15614 3142 -15520 3225 -15484 3318 -15437 1749 -7925 8811 -40382 80763 17622 -8811 40382 -1748 7925 -3200 14917 -3130 15012 -3048 15071 -2976 15118 -2882 15177 -2811 15248 -2728 15319 -2658 15366 -2575 15425 -2492 15497zm9633752 43665l-302563 -552095 2020 780 2031 767 2020 756 2019 756 2008 744 2020 732 2020 733 2019 720 2008 709 2020 708 2008 697 2019 685 2008 685 2020 685 2008 662 2008 661 2008 662 2008 638 2019 637 1996 638 2008 614 2008 626 2008 603 2008 602 1996 591 2008 590 2008 579 1996 567 1996 567 2008 555 1996 543 1996 543 1996 532 2008 520 1996 519 1996 508 1996 508 1984 496 1996 484 1996 485 1996 472 1985 461 1996 460 1984 449 1996 449 1984 425 1984 437 1996 414 1985 413 1984 402 1984 401 1985 390 1984 378 1984 378 1984 366 1973 354 1984 355 1984 342 1973 343 1984 330 1972 319 1985 319 1972 307 1972 295 1973 296 1972 283 1985 272 1960 272 1973 259 1972 260 1973 248 1972 236 1972 237 1961 212 1973 225 1960 200 1973 213 1960 189 1973 189 1960 177 1961 166 1961 165 1960 153 1961 154 1960 142 1961 130 1961 130 1960 118 1949 106 1961 106 1960 95 1949 94 1961 83 1949 71 1949 59 1960 59 1949 59 1949 35 1949 36 1948 35 1949 12 1949 24 1949 0 1949 0 1937 -12 1949 -12 1948 -24 1937 -35 1949 -47 1937 -47 1949 -48 1937 -59 1937 -71 1937 -82 1937 -83 1937 -94 1937 -95 1937 -106 1937 -118 1937 -130 1937 -130 1925 -130 1937 -142 1937 -153 1926 -166 1937 -165 1925 -177 1925 -189 1925 -189 1937 -189 1925 -213 1926 -212 1925 -213 1925 -236 1925 -236 1914 -237 1925 -248 1925 -260 1913 -271 1926 -272 1925 -283 1913 -284 1914 -295 1925 -307 1913 -307 1913 -319 1914 -331 1913 -331 1914 -342 1913 -343 1913 -354 1914 -366 1913 -378 1914 -378 1901 -378 1914 -402 1901 -401 1914 -402 1901 -425 1902 -413 1913 -437 1902 -437 1901 -449 1902 -449 1901 -461 1902 -472 1902 -484 1901 -484 1902 -485 1889 -496 1902 -508 1902 -519 1889 -520 1902 -532 1890 -531 1889 -543 1902 -555 1890 -556 1890 -567 1889 -578 1890 -579 1890 -591 1890 -602 1889 -602 1890 -614 1878 -615 1890 -626 1890 -637 1878 -650 1889 -650 1878 -649 1890 -673 1878 -662 1878 -685 1878 -685 1878 -697 1878 -708 1878 -709 1878 -709 1878 -732 1878 -732 1878 -744 1866 -745 1878 -755 1878 -756 1866 -780 1878 -779 1866 -780 1866 -791 1866 -803 1878 -804 1866 -815 1866 -826 1867 -827 1866 -839 1866 -850 1854 -850 1866 -863 1866 -874 1867 -874 1854 -886 1866 -885 1854 -898 1855 -909 1866 -910 1854 -921 1855 -933 1854 -933 1854 -945 1855 -945 1854 -969 1854 -956 1855 -981 1854 -980 1854 -992 1843 -992 1854 -1004 1843 -1016 1854 -1016 1842 -1027 1855 -1028 1842 -1051 1843 -1039 1842 -1063 1843 -1063 1842 -1075 1843 -1075 1842 -1086 1843 -1099 1842 -1098 1843 -1111 1831 -1110 1842 -1134 1831 -1122 1842 -1145 1831 -1146 -191126 599847zm-88217 -718312l15567 38292 -76582 31134 -15567 -38292 -2386 -5976 -5362 -12981 -5481 -12909 -5634 -12850 -5740 -12768 -5882 -12697 -6023 -12638 -6154 -12567 -6283 -12508 -6425 -12437 -6532 -12354 -6484 -11929 -20303 -36000 72000 -40606 20303 36000 224 401 7111 13063 6956 13158 6803 13193 6685 13287 6532 13346 6402 13441 6259 13500 6118 13571 5965 13654 5835 13712 5693 13784 2385 5976zm-215374 -365539l26292 31889 -63780 52583 -26291 -31890 -8977 -10996 -9200 -11055 -9355 -10984 -9484 -10949 -9614 -10854 -9744 -10807 -9874 -10737 -10028 -10677 -10169 -10641 -10276 -10536 -10429 -10500 -638 -638 -29539 -28901 57803 -59079 29539 28901 1205 1182 10973 11043 10842 11126 10689 11185 10571 11244 10441 11350 10287 11398 10158 11492 10004 11540 9874 11622 9744 11693 8976 10996zm-305764 -291048l33107 24744 -49489 66213 -33106 -24744 -933 -709 -12744 -9437 -12874 -9378 -13016 -9307 -13146 -9260 -13287 -9189 -13429 -9141 -13536 -9060 -13712 -9011 -13831 -8965 -13028 -8279 -34960 -22040 44079 -69921 34960 22039 13595 8634 14350 9295 14232 9343 14103 9437 13949 9496 13830 9567 13689 9638 13559 9708 13418 9780 13287 9839 933 708zm-358795 -218988l37063 18295 -36591 74126 -37063 -18295 -14634 -7276 -16169 -7913 -16299 -7866 -16441 -7784 -16595 -7736 -16712 -7677 -16855 -7606 -16996 -7560 -17138 -7500 -37948 -16216 32480 -76016 38008 16240 366 166 17587 7689 17444 7748 17304 7819 17185 7889 17043 7949 16913 8020 16772 8079 16642 8149 14634 7276zm-385253 -162260l38989 13724 -27449 77977 -38988 -13725 -6969 -2468 -19063 -6662 -19193 -6602 -19335 -6532 -19464 -6484 -19595 -6413 -19748 -6355 -19901 -6307 -12107 -3791 -39484 -12213 24425 -78968 39485 12212 12484 3910 20232 6402 20126 6472 19996 6555 19843 6602 19712 6674 19595 6720 19441 6803 6968 2469zm-398858 -120780l40027 10323 -20645 80055 -40028 -10323 -496 -130 -21661 -5551 -21804 -5468 -21933 -5421 -22074 -5363 -22229 -5303 -22358 -5256 -22465 -5185 -4382 -992 -40322 -9059 18118 -80646 40323 9059 4689 1063 22795 5256 22665 5327 22512 5374 22382 5433 22264 5492 22134 5563 21992 5622 496 130zm-406146 -90094l40618 7630 -15260 81236 -40618 -7630 -10642 -2008 -24142 -4500 -24259 -4441 -24414 -4382 -24531 -4334 -24674 -4264 -24803 -4205 -4393 -732 -40784 -6733 13465 -81567 40783 6733 4630 779 25063 4252 24933 4311 24815 4382 24650 4429 24543 4489 24378 4547 10642 2008zm-409878 -66827l40948 5646 -11291 81897 -40949 -5645 -7169 -993 -26315 -3590 -26445 -3543 -26598 -3473 -26717 -3425 -26858 -3378 -23185 -2858 -41032 -4985 9969 -82063 41031 4985 23421 2882 27071 3401 26930 3449 26811 3520 26657 3567 26551 3614 7170 992zm-412028 -48721l41137 4063 -8126 82276 -41137 -4063 -7288 -720 -28346 -2776 -28488 -2705 -28630 -2645 -28772 -2599 -28878 -2563 -13642 -1169 -41185 -3484 6969 -82371 41185 3485 13830 1193 29091 2563 28937 2622 28819 2669 28677 2728 28559 2776 7288 720zm-413174 -34299l41244 2776 -5551 82488 -41244 -2776 -5988 -401 -30248 -2008 -30402 -1949 -30520 -1902 -30673 -1854 -30779 -1795 -5906 -343 -41268 -2279 4559 -82536 41268 2280 6071 342 30968 1819 30815 1855 30686 1901 30567 1973 30413 2008 5988 401zm-413823 -22559l41303 1665 -3331 82607 -41303 -1666 -30295 -1240 -32150 -1275 -32291 -1217 -32410 -1169 -32563 -1099 -5149 -177 -41315 -1311 2622 -82630 41315 1311 5268 177 32704 1122 32575 1170 32433 1216 32292 1276 30295 1240zm-413953 -12827l41327 827 -1654 82654 -41327 -827 -12779 -260 -33792 -650 -33897 -602 -34040 -543 -34193 -496 -16287 -225 -41327 -508 1016 -82653 41327 508 16405 224 34311 496 34181 543 34040 603 33909 649 12780 260zm-414048 -4665l41327 71 -142 82653 -41326 -71 -14493 -35 -35397 -35 -35540 11 -35669 59 -35799 107 -8150 35 -41327 213 -425 -82654 41327 -212 8268 -36 35917 -106 35787 -59 35634 -12 35516 35 14492 36zm-413976 2315l41326 -591 1181 82654 -41326 590 -19843 260 -40039 614 -39839 662 -39602 732 -25713 520 -41327 862 -1724 -82654 41327 -862 25854 -519 39744 -733 39957 -661 40181 -614 19843 -260zm-414001 9189l41315 -1370 2740 82630 -41315 1370 -35763 1157 -37642 1276 -37406 1346 -37193 1406 -16913 685 -41303 1677 -3355 -82606 41304 -1677 17055 -686 37358 -1405 37571 -1346 37783 -1300 35764 -1157zm-413847 17362l41268 -2256 4512 82536 -41268 2256 -25819 1370 -35291 1972 -35079 2020 -34854 2078 -33673 2091 -41256 2598 -5197 -82511 41256 -2599 33838 -2090 35044 -2103 35244 -2019 35457 -1973 25818 -1370zm-413504 27154l41197 -3331 6662 82394 -41197 3330 -24154 1914 -32787 2693 -32611 2763 -32385 2811 -32197 2882 -10099 933 -41149 3827 -7654 -82299 41150 -3827 10287 -957 32386 -2905 32598 -2835 32800 -2763 33000 -2717 24153 -1913zm-412807 39177l41067 -4677 9354 82134 -41067 4677 -24768 2787 -30189 3484 -30011 3555 -29811 3603 -29623 3661 -19169 2445 -40996 5268 -10535 -81992 40996 -5268 19429 -2469 29858 -3708 30024 -3626 30248 -3579 30425 -3508 24768 -2787zm-411461 54201l40842 -6378 12756 81685 -40842 6378 -21898 3378 -27531 4334 -27319 4394 -27130 4453 -26953 4523 -26752 4571 -4772 839 -40701 7181 -14362 -81402 40701 -7181 5055 -886 27036 -4618 27212 -4571 27414 -4500 27578 -4441 27768 -4381 21898 -3378zm-408886 73382l40452 -8493 16985 80906 -40453 8492 -10406 2150 -24744 5244 -24578 5303 -24390 5362 -24201 5410 -24035 5480 -23847 5539 -4122 981 -40205 9590 -19181 -80409 40205 -9591 4429 -1051 24177 -5610 24366 -5551 24532 -5504 24697 -5410 24862 -5374 25051 -5315 10406 -2149zm-404363 98421l39756 -11327 22654 79512 -39756 11327 -8351 2350 -21767 6248 -21603 6319 -21437 6378 -21260 6425 -21082 6496 -20918 6555 -20551 6556 -39354 12637 -25276 -78708 39354 -12638 20930 -6673 21295 -6674 21484 -6614 21638 -6543 21791 -6473 21957 -6437 22146 -6366 8350 -2350zm-395764 131846l38480 -15106 30213 76961 -38480 15106 -5197 2020 -18638 7358 -18472 7441 -18319 7488 -18142 7548 -18012 7618 -17846 7665 -17682 7724 -17527 7784 -662 295 -37618 17114 -34228 -75236 37618 -17114 1110 -508 18000 -7996 18130 -7913 18296 -7855 18437 -7807 18614 -7736 18744 -7677 18921 -7607 19063 -7547 5197 -2020zm-379477 176965l36036 -20256 40512 72071 -36036 20256 -10063 5610 -15283 8658 -15118 8705 -14977 8763 -14834 8811 -14670 8882 -14551 8941 -14409 8988 -14256 9059 -11280 7288 -34653 22535 -45071 -69307 34653 -22535 11799 -7618 14776 -9367 14906 -9318 15047 -9248 15212 -9189 15331 -9119 15473 -9070 15637 -8989 15756 -8941 10063 -5610zm-347835 235843l31772 -26445 52890 63543 -31772 26445 -2008 1654 -11952 10027 -11811 10063 -11658 10122 -11563 10205 -11421 10240 -11280 10300 -11173 10358 -11043 10429 -10925 10476 -10760 10512 -4075 4040 -29209 29244 -58488 -58418 29209 -29244 4547 -4512 11303 -11031 11421 -10949 11540 -10902 11669 -10830 11799 -10772 11941 -10713 12059 -10629 12201 -10595 12331 -10512 12449 -10453 2007 -1653zm-292275 304276l24885 -33000 66001 49771 -24886 33000 -1288 1689 -8645 11575 -8540 11634 -8409 11669 -8303 11741 -8197 11799 -8091 11858 -7972 11906 -7866 11976 -7760 12047 -7642 12083 -7535 12153 -532 851 -21354 35386 -70772 -42709 21354 -35386 863 -1417 7913 -12768 8043 -12697 8138 -12614 8244 -12567 8374 -12520 8492 -12448 8599 -12390 8728 -12331 8835 -12260 8964 -12201 9071 -12141 1288 -1689zm-212575 364972l16228 -38019 76039 32456 -16228 38020 -5764 13370 -5622 13299 -5515 13347 -5422 13417 -5327 13477 -5232 13511 -5138 13583 -5043 13642 -4949 13724 -4866 13784 -4760 13819 -685 2031 -13039 39225 -78449 -26079 13039 -39225 874 -2598 4973 -14409 5055 -14327 5161 -14292 5256 -14232 5351 -14173 5468 -14126 5563 -14043 5658 -13985 5752 -13937 5858 -13889 5764 -13371z"/>
 </g>
</svg>
